<svg xmlns="http://www.w3.org/2000/svg" viewBox="0 0 315 215" class="svg-logo" width="315" height="215" style="height: auto;"><rect rx="10" ry="10" width="100%" height="100%" fill="rgba(10, 50, 250, 1.0)"></rect><g data-element="wrapper" transform="translate(30.415917205807908 59.12499914169211) scale(0.45000000000000934)"><g data-element="container" transform="translate(71.78735588663896 21.787690654367438) scale(0.2857091510106647)"><g><path id="fill_x5F_1_112_" fill="transparent" d="M308.564,579.103l16.859-0.851l-1.269-16.98l-4.234,0.215
	c-6.808,0.348-13.319,0.518-19.912,0.518s-13.104-0.17-19.912-0.518l-4.234-0.215l-1.269,16.977l16.862,0.857l-0.242,16.323
	c-19.736-1.075-36.762-2.68-53.376-6.323l3.628-15.802c3.689,0.833,7.386,1.375,10.993,1.902l5.657,0.836l2.789-16.768l-4.343-0.669
	c-12.308-1.893-26.414-4.319-38.086-9.167l-4.331-1.799l-5.366,16.366l3.937,1.445c4.037,1.481,8.146,2.571,12.159,3.592
	l-4.107,15.687c-16.835-4.897-33.01-11.023-50.269-19.043l7.365-14.536l15.212,7.332l6.759-15.63l-3.752-1.808
	c-10.945-5.275-22.147-11.235-35.251-18.758l-3.622-2.081l-8.982,14.334l14.421,8.767l-7.804,14.315
	c-1.723-1.051-3.458-2.105-5.2-3.162c-13.576-8.24-27.577-16.741-39.164-27.235l10.7-12.441c2.217,1.865,4.515,3.565,6.762,5.224
	l6.647,5.024l10.33-13.589l-3.513-2.62c-10.509-7.841-21.444-16.299-29.476-25.896l-2.998-3.586l-12.353,11.99l2.826,3.11
	c2.889,3.18,6.018,6.06,9.088,8.837l-10.942,11.974c-12.208-11.793-23.676-24.724-35.645-40.19l13.255-9.464l10.109,13.522
	l13.24-10.709l-2.505-3.35c-7.411-9.909-14.582-20.375-22.568-32.931l-2.244-3.531l-14.621,8.549l8.764,14.434l-13.537,9.064
	c-1.072-1.787-2.153-3.58-3.241-5.379c-8.174-13.528-16.602-27.483-22.002-42.123l15.239-6.048c1.23,3.031,2.644,5.933,4.025,8.77
	l3.131,6.511l15.427-7.238l-1.911-3.955c-5.445-11.263-11.469-24.306-14.061-36.562l-0.972-4.594l-16.529,4.876l1.051,4.064
	c1.075,4.158,2.508,8.162,3.943,12.047l-15.251,5.524c-5.612-16.902-9.833-34.061-12.835-52.198l16.16-2.193l2.547,16.693
	l16.705-3.304l-0.627-4.107c-1.896-12.453-3.804-25.763-4.494-39.56l-0.215-4.313L20.85,308.32l0.257,4.394
	c0.115,1.99,0.503,10.303,0.633,12.462l-16.226,1.702c-1.121-18.013-1.121-35.678-0.003-53.737l16.229,1.702
	c-0.133,2.177-0.233,4.355-0.336,6.532c-0.091,1.978-0.182,3.955-0.297,5.93l-0.254,4.391l17.041,0.763l0.215-4.313
	c0.69-13.825,2.598-27.123,4.491-39.561l0.627-4.107l-16.708-3.304l-2.544,16.696l-16.16-2.19
	c2.995-18.119,7.214-35.275,12.832-52.198l15.251,5.524c-1.436,3.88-2.868,7.883-3.943,12.044l-1.051,4.067l16.532,4.867
	l0.972-4.591c2.595-12.286,8.616-25.315,14.058-36.562l1.911-3.955l-15.43-7.238l-3.122,6.49c-1.384,2.844-2.801,5.754-4.031,8.795
	l-15.242-6.051c5.415-14.664,13.858-28.643,22.044-42.195c1.072-1.775,2.138-3.54,3.195-5.303l13.54,9.061l-8.764,14.427
	l14.621,8.555l2.244-3.531c7.95-12.514,15.118-22.977,22.565-32.934l2.505-3.349l-13.24-10.709L75.15,134.421l-13.252-9.461
	c11.935-15.43,23.404-28.368,35.642-40.194l10.939,11.971c-3.074,2.777-6.199,5.66-9.082,8.837l-2.823,3.11l12.35,11.99l2.998-3.586
	c8.053-9.621,18.976-18.071,29.473-25.899l3.513-2.62L134.575,74.98l-3.455,2.638l-3.168,2.368
	c-2.256,1.669-4.561,3.374-6.787,5.245l-10.7-12.438c11.599-10.503,25.608-19.013,39.197-27.262
	c1.729-1.051,3.452-2.096,5.163-3.144l7.807,14.315l-14.422,8.764l8.979,14.34l3.625-2.081
	c13.146-7.547,24.349-13.507,35.251-18.758l3.758-1.811l-6.766-15.627l-15.212,7.329l-7.368-14.537
	c17.274-8.022,33.449-14.152,50.269-19.046l4.107,15.687c-4.01,1.021-8.119,2.114-12.153,3.592L208.762,36l5.366,16.369l4.331-1.799
	c11.687-4.855,25.787-7.277,38.086-9.17l4.343-0.669l-2.789-16.769l-5.518,0.815c-3.655,0.533-7.398,1.081-11.136,1.923
	l-3.628-15.802c16.608-3.646,33.637-5.251,53.373-6.326l0.245,16.326l-16.862,0.851l1.272,16.981l4.234-0.215
	c6.808-0.348,13.319-0.518,19.912-0.518s13.104,0.17,19.912,0.518l4.234,0.215l1.269-16.978l-16.862-0.857l0.242-16.323
	c19.746,1.075,36.774,2.68,53.373,6.32l-3.625,15.803c-3.689-0.83-7.386-1.372-10.993-1.899l-5.654-0.836l-2.798,16.765l4.346,0.669
	c12.311,1.896,26.423,4.328,38.089,9.17l4.331,1.799l5.366-16.366l-3.937-1.444c-4.04-1.481-8.15-2.571-12.162-3.592l4.107-15.687
	c16.826,4.891,32.998,11.018,50.272,19.043l-7.365,14.537l-15.212-7.332l-6.76,15.63l3.755,1.808
	c10.942,5.276,22.144,11.236,35.248,18.758l3.622,2.081l8.982-14.334l-14.421-8.767l7.804-14.315c1.723,1.051,3.458,2.105,5.2,3.162
	c13.577,8.24,27.577,16.741,39.164,27.235l-10.699,12.441c-2.232-1.878-4.546-3.589-6.811-5.26l-6.602-4.982l-10.327,13.586
	l3.513,2.62c10.506,7.835,21.438,16.29,29.476,25.893l2.998,3.586l12.353-11.99l-2.826-3.11c-2.889-3.18-6.017-6.06-9.088-8.837
	l10.942-11.971c12.226,11.808,23.695,24.739,35.642,40.19l-13.253,9.461l-10.109-13.522l-13.24,10.709l2.505,3.35
	c7.417,9.915,14.588,20.381,22.568,32.934l2.247,3.534l14.618-8.561l-8.764-14.428l13.537-9.064
	c1.066,1.778,2.141,3.558,3.222,5.348c8.18,13.54,16.617,27.504,22.02,42.153l-15.239,6.051c-1.23-3.035-2.644-5.936-4.025-8.773
	l-3.131-6.511l-15.427,7.238l1.911,3.955c5.445,11.263,11.469,24.306,14.061,36.562l0.972,4.594l16.529-4.876l-1.051-4.064
	c-1.075-4.158-2.508-8.162-3.946-12.047l15.254-5.524c5.612,16.902,9.833,34.064,12.834,52.201l-16.16,2.19l-2.547-16.693
	l-16.705,3.304l0.627,4.107c1.896,12.453,3.804,25.763,4.494,39.56l0.215,4.313l17.044-0.763l-0.257-4.394
	c-0.115-1.99-0.503-10.303-0.633-12.462l16.226-1.705c1.121,18.016,1.121,35.684,0.003,53.74l-16.229-1.702
	c0.133-2.178,0.233-4.355,0.336-6.532c0.091-1.978,0.182-3.955,0.297-5.93l0.254-4.391l-17.041-0.766l-0.215,4.313
	c-0.69,13.828-2.599,27.126-4.491,39.564l-0.627,4.107l16.708,3.304l2.544-16.696l16.16,2.189
	c-2.995,18.119-7.214,35.275-12.831,52.198l-15.251-5.524c1.436-3.879,2.868-7.883,3.943-12.041l1.051-4.064l-16.532-4.876
	l-0.972,4.594c-2.595,12.28-8.616,25.315-14.058,36.565l-1.911,3.955l15.43,7.235l3.122-6.49c1.384-2.844,2.801-5.754,4.031-8.795
	l15.242,6.051c-5.415,14.664-13.858,28.643-22.044,42.195c-1.072,1.775-2.138,3.54-3.195,5.303l-13.54-9.061l8.764-14.427
	l-14.621-8.555l-2.244,3.531c-7.95,12.513-15.118,22.977-22.565,32.934l-2.505,3.349l13.24,10.708l10.112-13.525l13.252,9.461
	c-11.944,15.442-23.413,28.373-35.642,40.193l-10.942-11.971c3.074-2.774,6.202-5.657,9.088-8.84l2.82-3.107l-12.35-11.99
	l-2.998,3.586c-8.053,9.621-18.976,18.071-29.473,25.899l-3.513,2.62l10.327,13.586l3.459-2.635l3.156-2.356
	c2.259-1.672,4.57-3.38,6.802-5.257l10.697,12.438c-11.605,10.512-25.624,19.025-39.218,27.277c-1.72,1.045-3.437,2.087-5.139,3.128
	L437.37,543.3l14.422-8.767l-8.979-14.337l-3.625,2.081c-13.125,7.535-24.328,13.498-35.251,18.758l-3.755,1.811l6.763,15.633
	l15.215-7.332l7.365,14.534c-17.274,8.022-33.449,14.152-50.269,19.046l-4.11-15.687c4.013-1.021,8.122-2.111,12.159-3.592
	l3.937-1.445l-5.366-16.366l-4.331,1.799c-11.678,4.849-25.781,7.277-38.086,9.173l-4.343,0.669l2.789,16.765l5.518-0.815
	c3.655-0.533,7.398-1.081,11.135-1.923l3.628,15.805c-16.608,3.643-33.637,5.248-53.373,6.323L308.564,579.103z"></path>
<path id="frame_x5F_1_112_" d="M598.52,331.645c1.527-21.246,1.529-42.067-0.003-63.313l-24.885,2.612
	c0.463,5.516,0.603,11.065,0.927,16.596l-8.331,0.373c-0.677-13.554-2.494-26.572-4.54-39.997l8.18-1.619l2.504,16.43l24.797-3.363
	c-3.261-21.24-8.12-41.246-15.136-61.493l-23.528,8.52c1.911,5.216,3.941,10.348,5.33,15.728l-7.998,2.358
	c-2.682-12.685-8.771-25.904-14.4-37.552l7.55-3.542c2.392,4.996,4.979,9.91,6.666,15.204l23.255-9.233
	c-6.55-19.954-18.757-38.267-29.324-56.153l-20.79,13.921l8.628,14.209l-7.199,4.213c-7.289-11.464-14.628-22.335-22.756-33.205
	l6.484-5.246l9.952,13.313l20.363-14.541c-13.005-17.125-26.402-32.621-42.035-47.316l-16.877,18.473
	c4.113,3.735,8.289,7.347,12.026,11.459l-5.984,5.808c-8.386-10.023-19.789-18.817-30.209-26.588l5.045-6.638
	c4.406,3.358,9.025,6.456,12.971,10.367l16.317-18.972c-15.014-14.622-34.369-25.249-51.986-36.173l-11.981,21.968l14.203,8.634
	l-4.428,7.067c-11.771-6.758-23.306-13.015-35.527-18.904l3.31-7.654l14.973,7.215l11.308-22.321
	c-19.419-9.257-38.564-16.68-59.242-22.402l-6.339,24.206c5.381,1.382,10.758,2.622,15.975,4.535l-2.598,7.924
	c-11.982-4.974-26.299-7.48-39.094-9.449l1.372-8.226c5.482,0.81,10.981,1.539,16.299,3.145l5.597-24.388
	C346.717,2.65,325.671,1.054,304.512,0l-0.372,25.02l16.605,0.84l-0.621,8.316c-13.635-0.696-26.632-0.696-40.266,0.001
	l-0.624-8.316l16.605-0.84l-0.375-25.019c-21.158,1.055-42.205,2.651-62.849,7.639l5.6,24.388
	c5.321-1.606,10.818-2.339,16.302-3.147l1.369,8.226c-12.796,1.971-27.107,4.479-39.091,9.452l-2.598-7.924
	c5.216-1.913,10.589-3.155,15.969-4.537l-6.338-24.206c-20.679,5.728-39.818,13.152-59.239,22.407L175.9,54.62l14.973-7.216
	l3.313,7.654c-12.22,5.888-23.76,12.15-35.53,18.906l-4.428-7.067l14.203-8.633l-11.984-21.967
	c-17.618,10.924-36.967,21.556-51.983,36.177l16.317,18.971c3.949-3.912,8.568-7.013,12.971-10.37l5.048,6.638
	c-10.423,7.774-21.817,16.566-30.206,26.591l-5.984-5.807c3.733-4.114,7.909-7.724,12.02-11.459L97.752,78.564
	c-15.628,14.705-29.023,30.193-42.032,47.32l20.363,14.539l9.954-13.315l6.484,5.245c-8.127,10.868-15.47,21.741-22.753,33.206
	l-7.199-4.212l8.628-14.206l-20.793-13.92c-10.571,17.889-22.764,36.201-29.321,56.155l23.258,9.231
	c1.687-5.294,4.27-10.211,6.663-15.207l7.553,3.541c-5.633,11.648-11.715,24.867-14.397,37.553l-8.001-2.357
	c1.389-5.379,3.416-10.511,5.327-15.726l-23.528-8.519c-7.011,20.25-11.871,40.252-15.13,61.494l24.797,3.362l2.504-16.433
	l8.18,1.618c-2.045,13.425-3.86,26.443-4.537,39.997l-8.331-0.373c0.321-5.53,0.466-11.078,0.924-16.593l-24.885-2.61
	c-1.528,21.246-1.53,42.067,0.003,63.313l24.885-2.612c-0.463-5.516-0.603-11.065-0.927-16.596l8.331-0.373
	c0.677,13.554,2.494,26.572,4.54,39.997l-8.18,1.619l-2.505-16.431L2.83,340.634c3.262,21.24,8.119,41.247,15.136,61.493
	l23.525-8.521c-1.909-5.216-3.938-10.349-5.327-15.728l7.998-2.358c2.682,12.686,8.771,25.904,14.4,37.552l-7.55,3.542
	c-2.392-4.996-4.979-9.91-6.666-15.203l-23.255,9.233c6.55,19.954,18.757,38.267,29.324,56.153l20.79-13.921l-8.628-14.209
	l7.199-4.213c7.288,11.465,14.627,22.335,22.756,33.205l-6.484,5.246l-9.951-13.313l-20.366,14.541
	c13.009,17.122,26.405,32.62,42.038,47.316l16.878-18.473c-4.113-3.735-8.29-7.347-12.026-11.46l5.984-5.808
	c8.386,10.023,19.789,18.817,30.209,26.589l-5.045,6.638c-4.406-3.359-9.025-6.456-12.971-10.368l-16.317,18.972
	c15.015,14.621,34.369,25.249,51.986,36.173l11.98-21.968l-14.203-8.634l4.428-7.067c11.771,6.757,23.306,13.015,35.527,18.904
	l-3.31,7.654l-14.973-7.215l-11.308,22.321c19.419,9.256,38.563,16.676,59.239,22.402l6.339-24.206
	c-5.381-1.382-10.756-2.622-15.972-4.535l2.598-7.924c11.981,4.974,26.297,7.48,39.091,9.449l-1.369,8.226
	c-5.481-0.81-10.981-1.539-16.299-3.145l-5.6,24.388c20.648,4.98,41.691,6.58,62.852,7.635l0.372-25.02l-16.605-0.84l0.621-8.316
	c13.635,0.696,26.632,0.696,40.266-0.001l0.621,8.317l-16.602,0.84l0.375,25.02c21.158-1.055,42.205-2.651,62.849-7.639l-5.6-24.388
	c-5.321,1.606-10.818,2.339-16.302,3.147l-1.369-8.226c12.796-1.972,27.107-4.479,39.091-9.453l2.598,7.924
	c-5.217,1.913-10.591,3.155-15.972,4.537l6.342,24.206c20.679-5.728,39.818-13.152,59.239-22.407l-11.311-22.32l-14.973,7.216
	l-3.313-7.654c12.219-5.888,23.76-12.151,35.53-18.906l4.428,7.066l-14.203,8.633l11.984,21.967
	c17.618-10.925,36.964-21.556,51.98-36.177l-16.314-18.971c-3.949,3.912-8.567,7.013-12.974,10.37l-5.045-6.638
	c10.423-7.774,21.817-16.567,30.206-26.591l5.984,5.807c-3.735,4.116-7.909,7.723-12.023,11.459l16.88,18.472
	c15.628-14.705,29.023-30.193,42.032-47.319l-20.363-14.539l-9.954,13.314l-6.484-5.245c8.127-10.868,15.47-21.741,22.753-33.206
	l7.199,4.212l-8.628,14.207l20.793,13.919c10.571-17.889,22.764-36.2,29.321-56.155l-23.259-9.231
	c-1.687,5.294-4.27,10.211-6.663,15.207l-7.553-3.541c5.633-11.648,11.715-24.867,14.397-37.554l8.001,2.357
	c-1.389,5.379-3.416,10.51-5.327,15.726l23.528,8.519c7.011-20.25,11.871-40.252,15.13-61.494l-24.797-3.362l-2.505,16.433
	l-8.18-1.618c2.045-13.425,3.86-26.443,4.537-39.997l8.331,0.373c-0.321,5.53-0.466,11.078-0.924,16.593L598.52,331.645z
	 M558.299,303.893c-0.933,18.217-2.249,36.371-6.584,54.139l24.394,5.6c1.644-5.485,2.408-11.149,3.244-16.798l8.222,1.369
	c-2.205,14.058-4.973,29.576-10.357,42.781l-7.916-2.597c1.964-5.379,3.252-10.915,4.679-16.459l-24.215-6.34
	c-4.964,17.811-11.346,34.185-19.258,50.957l22.326,11.312l7.432-15.433l7.647,3.308c-6.438,13.371-13.232,26.023-20.663,38.88
	l-7.062-4.424l8.888-14.638L527.1,423.565c-9.515,15.044-18.476,31.975-31.181,44.76l18.976,16.32
	c4.022-4.075,7.226-8.825,10.687-13.363l6.632,5.044c-8.56,11.419-18.133,23.751-29.079,33.019l-5.802-5.98
	c4.231-3.852,7.956-8.149,11.805-12.382L490.662,474.1c-12.725,13.459-26.037,24.926-40.763,36.225l14.543,20.369l13.716-10.259
	l5.242,6.478c-11.884,8.887-23.742,16.971-36.305,24.898l-4.21-7.192l14.633-8.894l-13.925-20.798
	c-15.432,8.933-31.132,19.75-48.337,25.217l9.234,23.263c5.454-1.75,10.521-4.404,15.672-6.868l3.54,7.544
	c-12.821,6.155-27.182,12.711-41.108,15.748l-2.353-7.993c5.541-1.439,10.833-3.521,16.208-5.486l-8.525-23.533
	c-17.466,6.007-34.589,10.161-52.898,13.02l3.365,24.802l16.932-2.587l1.617,8.174c-14.667,2.242-28.919,4.234-43.731,4.989
	l-0.376-8.325c5.697-0.329,11.411-0.483,17.093-0.964l-2.614-24.892c-9.063,0.488-18.231,1.469-27.304,1.47
	c-9.074,0-18.241-0.98-27.304-1.467l-2.611,24.893c5.681,0.477,11.396,0.633,17.093,0.962l-0.372,8.324
	c-14.813-0.756-29.066-2.745-43.734-4.987l1.617-8.174l16.929,2.587l3.362-24.802c-18.304-2.863-35.434-7.012-52.898-13.017
	l-8.519,23.534c5.376,1.966,10.669,4.049,16.211,5.485l-2.356,7.993c-13.932-3.042-28.281-9.585-41.108-15.744l3.54-7.544
	c5.148,2.466,10.218,5.115,15.669,6.865l9.234-23.264c-17.207-5.469-32.905-16.281-48.34-25.213l-13.925,20.799l14.636,8.896
	l-4.206,7.192c-12.561-7.927-24.424-16.01-36.308-24.896l5.242-6.479l13.713,10.257l14.543-20.37
	c-14.724-11.301-28.039-22.764-40.766-36.222l-18.477,16.884c3.851,4.233,7.577,8.532,11.811,12.383l-5.802,5.98
	c-10.947-9.269-20.523-21.594-29.082-33.016l6.632-5.044c3.458,4.539,6.666,9.284,10.684,13.359l18.976-16.321
	c-12.705-12.786-21.664-29.716-31.184-44.758l-21.971,11.985l8.889,14.641l-7.062,4.425c-7.433-12.853-14.229-25.51-20.666-38.879
	l7.647-3.309l7.432,15.43l22.326-11.313c-7.911-16.772-14.289-33.148-19.264-50.956l-24.212,6.342
	c1.427,5.545,2.718,11.082,4.682,16.462l-7.919,2.598c-5.382-13.214-8.153-28.714-10.357-42.78l8.219-1.369
	c0.836,5.648,1.602,11.311,3.243,16.795l24.394-5.602c-4.335-17.769-5.651-35.92-6.584-54.139l-25.027,0.374l0.863,17.103
	l-8.31,0.622c-0.744-14.891-0.745-29.107-0.003-43.998l8.31,0.621l-0.86,17.1l25.024,0.373c0.933-18.217,2.249-36.372,6.584-54.14
	l-24.394-5.6c-1.644,5.485-2.408,11.149-3.243,16.798l-8.222-1.369c2.205-14.058,4.973-29.576,10.357-42.781l7.916,2.597
	c-1.964,5.379-3.252,10.915-4.679,16.459l24.215,6.34c4.964-17.811,11.346-34.185,19.258-50.957l-22.326-11.312l-7.432,15.433
	l-7.647-3.308c6.438-13.371,13.227-26.025,20.663-38.88l7.062,4.424l-8.889,14.638L72.9,176.434
	c9.514-15.044,18.477-31.975,31.181-44.76l-18.979-16.319c-4.019,4.075-7.223,8.825-10.684,13.363l-6.632-5.044
	c8.56-11.42,18.132-23.751,29.079-33.019l5.803,5.98c-4.231,3.853-7.956,8.149-11.805,12.382L109.34,125.9
	c12.725-13.459,26.035-24.929,40.763-36.225l-14.546-20.369l-13.713,10.258l-5.242-6.478c11.884-8.887,23.742-16.971,36.305-24.898
	l4.21,7.192l-14.633,8.895l13.925,20.798c15.432-8.933,31.132-19.75,48.337-25.217l-9.234-23.263
	c-5.454,1.749-10.521,4.403-15.672,6.868l-3.54-7.544c12.821-6.155,27.18-12.708,41.105-15.748l2.356,7.993
	c-5.541,1.439-10.833,3.521-16.208,5.486l8.525,23.533c17.462-6.011,34.589-10.161,52.895-13.021l-3.362-24.802l-16.932,2.587
	l-1.617-8.174c14.667-2.243,28.919-4.234,43.731-4.989l0.376,8.325c-5.697,0.329-11.411,0.483-17.093,0.964l2.614,24.892
	c9.063-0.488,18.231-1.469,27.304-1.469s18.241,0.98,27.305,1.467l2.611-24.893c-5.681-0.477-11.396-0.633-17.093-0.962l0.372-8.324
	c14.813,0.756,29.066,2.745,43.734,4.987l-1.617,8.174l-16.929-2.587l-3.362,24.802c18.304,2.863,35.434,7.012,52.898,13.017
	l8.519-23.534c-5.376-1.966-10.669-4.05-16.211-5.485l2.356-7.993c13.931,3.042,28.282,9.586,41.108,15.744l-3.54,7.544
	c-5.148-2.465-10.218-5.115-15.669-6.865l-9.234,23.263c17.206,5.468,32.905,16.281,48.34,25.213l13.925-20.799l-14.637-8.896
	l4.207-7.192c12.561,7.927,24.425,16.01,36.308,24.896l-5.242,6.478L464.43,69.292l-14.543,20.37
	c14.724,11.301,28.039,22.764,40.766,36.222L509.13,109c-3.851-4.233-7.577-8.532-11.811-12.383l5.803-5.98
	c10.948,9.27,20.52,21.595,29.082,33.016l-6.632,5.044c-3.458-4.538-6.666-9.285-10.684-13.359l-18.976,16.321
	c12.706,12.786,21.664,29.716,31.184,44.758l21.971-11.985l-8.888-14.641l7.059-4.425c7.439,12.851,14.231,25.509,20.669,38.878
	l-7.647,3.309l-7.432-15.43l-22.326,11.313c7.911,16.771,14.289,33.148,19.264,50.956l24.212-6.342
	c-1.427-5.545-2.718-11.082-4.682-16.461l7.919-2.598c5.382,13.214,8.153,28.714,10.357,42.78l-8.219,1.37
	c-0.836-5.648-1.602-11.311-3.243-16.795l-24.394,5.602c4.313,17.779,5.65,35.914,6.584,54.139l25.027-0.374l-0.863-17.103
	l8.31-0.622c0.744,14.891,0.745,29.107,0.003,43.998l-8.31-0.621l0.86-17.1L558.299,303.893z" fill="rgba(201, 211, 255, 1.0)"></path></g></g><g><g data-element="icon" transform="scale(0.16538582454966022) translate(652.3231381455954 349.999107640516)"><path id="color_x5F_2_7_" fill="#FFFFFF" d="M319.25,306.145c-3.008-9.009-6.691-22.333-7.633-35.758    c9.726-1.568,19.012-4.197,27.038-7.916c36.2-16.774,34.714-53.499,2.649-59.158c-31.961-5.639-42.122,18.083-39.648,57.895    c-4.387,0.078-8.81-0.108-13.189-0.511c0.209-21.951-3.104-44.484-16.033-52.968c-28.254-18.541-56.509,15.01-44.146,40.615    c6.506,13.475,26.706,21.317,49.657,23.287c-0.554,12.14-1.98,25.255-3.105,34.289c-53.984-1.954-97.655-9.538-121.106-14.469    c0.362-24.379,9.22-138.907,143.613-139.981c129.104-1.031,141.604,112.266,142.742,139.608    C398.369,300.854,357.199,305.13,319.25,306.145z M346.601,243.485c22.515-27.812-26.486-42.82-33.551-7.504    c-1.539,7.686-2.019,16.157-1.87,24.61C325.268,258.937,338.165,253.907,346.601,243.485z M284.615,306.207    c7.65,0.174,15.485,0.229,23.482,0.145c-2.512-12.42-4.42-24.104-5.563-34.826c-4.81,0.443-9.661,0.639-14.467,0.586    C287.344,284.393,285.804,297.347,284.615,306.207z M245.945,250.108c8.057,3.581,19.602,7.157,32.217,9.256    c-0.209-16.03-2.568-31.565-9.701-39.718C249.917,198.456,222.104,239.514,245.945,250.108z"></path> <path id="color_x5F_1_17_" d="M297.346,133.852c-158.588,0-162.41,153.224-162.41,153.224s2.004,31.983,2.973,47.562    c3.154,50.714-29.731,71.765-29.731,88.212c0,16.445,23.495,23.494,23.495,23.494s-7.949,8.106-0.946,16.725    c5.761,7.091,18.673,6.464,38.782,4.31c0,0-2.873,7.541-34.473,8.618c-4.31,3.231-4.052,8.691-2.155,11.852    c3.524,5.874,7.087,3.136,11.786,11.357c4.699,8.225,3.523,17.621,5.874,25.844c2.348,8.224,41.94,5.198,77.181-5.376l2.669,38.322    c0,0,49.334,31.716,140.96,0c0,0-22.87-69.183,15.856-109.244c30.896-31.963,74.785-67.532,68.839-161.676    C456.045,287.075,461.209,133.852,297.346,133.852z M284.615,306.207c1.188-8.86,2.729-21.814,3.452-34.096    c4.806,0.053,9.657-0.143,14.467-0.586c1.144,10.722,3.052,22.406,5.563,34.826C300.101,306.436,292.266,306.381,284.615,306.207z     M313.05,235.981c7.064-35.316,56.065-20.308,33.551,7.504c-8.436,10.422-21.333,15.451-35.421,17.106    C311.031,252.139,311.511,243.667,313.05,235.981z M319.25,306.145c-3.008-9.009-6.691-22.333-7.633-35.758    c9.726-1.568,19.012-4.197,27.038-7.916c36.2-16.774,34.714-53.499,2.649-59.158c-31.961-5.639-42.122,18.083-39.648,57.895    c-4.387,0.078-8.81-0.108-13.189-0.511c0.209-21.951-3.104-44.484-16.033-52.968c-28.254-18.541-56.509,15.01-44.146,40.615    c6.506,13.475,26.706,21.317,49.657,23.287c-0.554,12.14-1.98,25.255-3.105,34.289c-53.984-1.954-97.655-9.538-121.106-14.469    c0.362-24.379,9.22-138.907,143.613-139.981c129.104-1.031,141.604,112.266,142.742,139.608    C398.369,300.854,357.199,305.13,319.25,306.145z M278.162,259.364c-12.615-2.099-24.16-5.675-32.217-9.256    c-23.842-10.595,3.972-51.652,22.516-30.462C275.594,227.799,277.953,243.334,278.162,259.364z M287.507,111.935l-3.231-84.025    h24.238l-6.465,84.025H287.507z M211.965,130.7l-37.707-75.158l22.065-10.028l28.881,79.168L211.965,130.7z M158.312,172.195    l-69.271-47.667l14.496-19.426l63.472,55.438L158.312,172.195z M131.658,239.004l-82.534-16.082l5.546-23.595l80.315,25.521    L131.658,239.004z M550.876,222.922l-82.534,16.082l-3.327-14.156l80.315-25.521L550.876,222.922z M433.84,172.195l-8.697-11.654    l63.472-55.438l14.496,19.426L433.84,172.195z M378.095,129.519l-13.146-6.221l30.1-78.716l21.908,10.368L378.095,129.519z"></path></g><text transform="translate(253.1157684326172 128.54721450805664)" fill="rgba(201, 211, 255, 1.0)" font-family="Emblema One" font-size="64" data-element="company-name" dx="0 0 0 0 0 0">UniLib</text></g></g></svg>