<svg xmlns="http://www.w3.org/2000/svg" viewBox="0 0 315 215" class="svg-logo" width="315" height="215" style="height: auto;"><rect rx="10" ry="10" width="100%" height="100%" fill="rgba(68, 174, 253, 1.0)"></rect><g data-element="wrapper" transform="translate(-0.7905616760276999 37.62499752044575) scale(0.6500000000000095)"><g data-element="container" transform="translate(91.74777305289491 41.747882426242285) scale(0.21917408982368364)"><g><path id="fill_x5F_1" fill="transparent" d="M152.654,446.175l147.917,102.353l147.19-102.574l101.047-146.028L445.777,152.078
	L299.747,51.031L153.663,152.833L51.31,300.75L152.654,446.175z"></path>
<path id="frame_x5F_1_7_" d="M0.682,354.463l144.073,99.694l101.522,145.681l54.312-37.849l54.307,37.579l100.795-145.666
	l143.986-100.341l-37.409-53.681L600,245.354L453.741,144.147L353.401,0.161l-53.68,37.408l-53.935-37.32L145.681,144.917L0,246.438
	l37.849,54.312L0.682,354.463z M26.999,349.672l22.392-32.36l64.406,92.421L26.999,349.672z M250.981,573.506l-61.7-88.538
	l94.709,65.535L250.981,573.506z M350.105,573.252l-32.954-22.803l94.118-65.589L350.105,573.252z M573.345,348.857l-86.842,60.518
	l64.279-92.894L573.345,348.857z M573.684,250.145l-22.956,33.175l-66.029-94.75L573.684,250.145z M348.696,26.494l60.518,86.842
	l-92.894-64.28L348.696,26.494z M250.578,26.566l32.582,22.546l-93.055,64.848L250.578,26.566z M159.294,158.485l140.465-97.887
	l140.413,97.161l99.069,142.161L442.08,440.332l-141.53,98.629l-142.228-98.417L60.877,300.713L159.294,158.485z M26.333,251.143
	l88.537-61.7l-65.534,94.708L26.333,251.143z" fill="rgba(52, 110, 168, 1.0)"></path></g></g><g><g data-element="icon" transform="scale(0.15603664632637934) translate(711.7447571522498 391.30742671320917)"><path id="color_x5F_1_50_" d="M121.533,471.139L41.288,315.715l94.875-87.247l95.075,218.563c3.638-0.397,7.265-0.886,10.88-1.452    l-71.957-165.718l23.72-1.582l75.333,161.427c5.719-1.6,11.388-3.383,16.969-5.413c53.654-19.516,92.128-60.343,124.777-105.98    c1.433-2.003,2.872-3.955,4.319-5.884c-3.304-12.729-7.602-25.191-12.843-37.253c-7.208,5.363-14.794,10.223-22.684,14.498    c-14.206,7.695-30.206,13.736-46.221,11.604c-12.99-1.73-18.982-13.086-30.144-19.953c-8.497-5.228-17.047-10.591-24.01-17.736    c-6.964-7.145-12.292-16.346-12.91-26.304c-0.539-8.682,0.726-15.306-0.963-23.76c-1.053,0.375-2.104,0.77-3.143,1.263    c-4.757,2.256-10.823-1.801-13.943-6.042c4.958,1.948,10.441,2.216,15.635,1.089c-3.71-6.165-13.124-11.885-16.406-17.46    c-6.474-10.998-8.942-22.875-8.648-34.956c-10.869-0.011-21.722-3.985-29.247-11.783c5.983,3.17,13.694,2.77,19.318-0.999    c-10.718-0.992-20.65-8.138-24.996-17.986c9.969,5.254,22.611,1.491,31.491-5.446c8.88-6.938,15.165-16.578,22.623-25.026    c1.851-2.097,3.833-4.146,5.938-6.055c10.506-14.796,23.684-28.07,38.077-37.694c13.404-8.965,16.63-11.507,32.614-13.639    c5.584-0.745,13.198,0.266,21.214,2.351c25.212-6.952,53.671,0.3,74.072,16.937c22.194,18.1,35.206,45.973,38.545,74.416    c3.486,29.701-3.064,60.259-17.19,86.637c6.926,15.893,14.724,31.403,23.378,46.425c4.508-1.789,8.007-2.491,9.069-0.987    c20.516,29.057,32.641,38.936,49.382,68.295c20.467,35.893-1.417,79.577-2.584,120.879c-63.887-16.534-127.132-4.569-236.344,29.739    c-28.053,8.812-58.268,7.218-87.276,2.8c-7.847-1.196-84.352-17.736-83.28-23.864c0.07-0.402,0.14-0.804,0.211-1.207    L121.533,471.139z M410.406,476.267c-50.515,8.267-88.03,28.203-155.32,34.61c-70.025,6.667-154.065-15.808-150.646-44.011    c-29.058,30.767,56.407,62.39,135.035,62.39c48.438,0,101.348-8.009,149.565-12.82c48.217-4.811,92.029-2.157,129.1,30.325    c9.768-16.865,21.883-32.252,35.848-45.53C510.775,472.749,460.92,468,410.406,476.267z" fill="rgba(52, 110, 168, 1.0)"></path></g><text transform="translate(233.98952001333237 131.50115203857422)" fill="rgba(52, 110, 168, 1.0)" font-family="Lobster" font-size="64" data-element="company-name" dx="0 0 0 0 0 0">UniLib</text></g></g></svg>