<svg xmlns="http://www.w3.org/2000/svg" viewBox="0 0 315 215" class="svg-logo" width="315" height="215" style="height: auto;"><rect rx="10" ry="10" width="100%" height="100%" fill="rgba(1, 20, 128, 1.0)"></rect><g data-element="wrapper" transform="translate(33.15921020507521 64.50000228881736) scale(0.40000000000000935)"><g data-element="container" transform="translate(81.31086803617931 31.310982353978847) scale(0.2539637732127356)"><g><path id="fill_x5F_1_116_" fill="transparent" d="M315.557,594.517c-17.361,0-34.268-6.434-46.391-17.649
	c-2.458-2.381-4.527-4.644-6.251-6.842c-2.74-3.488-5.369-6.962-7.893-10.413c-2.76-3.685-5.041-7.085-6.999-10.442
	c-7.088-11.709-16.179-21.157-28.653-29.795l-13.025-9.017l6.037,14.643c2.455,5.957,5.429,12.968,8.872,19.799
	c3.497,6.431,7.208,12.791,11.101,19.037c5.732,9.662,12.283,18.209,19.876,27.309l-2.049-0.311
	c-10.71-1.233-20.101-6.208-27.109-10.407c-6.882-3.919-13.35-10.328-19.313-19.102c-1.867-2.815-3.36-5.409-4.542-7.887
	c-3.56-7.65-6.423-15.897-9.191-23.872c-1.293-3.828-2.658-7.185-4.173-10.319l-1.262-2.677c-1.062-2.278-2.144-4.584-3.366-6.685
	c-3.04-5.523-6.951-10.69-12.254-16.159l-10.014-10.325l2.027,14.241c1.045,7.333,2.686,14.572,4.136,20.96l0.828,3.385
	c1.484,6.123,3.02,12.454,5.241,18.306c3.511,9.771,7.573,20.692,12.634,31.251c-0.522-0.24-1.039-0.491-1.547-0.754
	c-4.71-2.247-9.097-4.761-13.188-7.542c-3.714-2.563-7.622-5.389-10.664-9.014c-7.325-8.338-11.889-15.714-14.438-23.292
	c-1.065-3.303-1.833-6.28-2.329-9.052l-0.534-3.174c-1.29-7.607-2.506-14.795-2.923-22.293c-0.808-13.699-4.467-26.31-11.521-39.7
	l-7.367-13.993l-1.43,15.748c-0.588,6.48-1.202,14.118-1.319,21.648c0.1,7.31,0.417,14.675,0.948,22.022l0.979,11.321
	c0.365,3.2,0.879,6.151,1.404,9.166l0.391,2.249c0.631,3.528,1.316,7.085,2.052,10.656l-1.616-1.205
	c-7.076-4.924-13.288-12.02-19.114-21.791c-4.296-6.768-7.039-15.445-8.227-25.904c-0.345-3.377-0.465-6.365-0.36-9.092
	c0.448-8.358,1.67-16.984,2.986-25.816c0.565-3.602,0.908-7.208,1.013-10.684c0.197-3.323,0.411-6.902,0.268-10.433
	c-0.146-7.484-1.77-14.289-3.337-19.944l-3.885-14.01l-5.012,13.647c-2.289,6.237-3.899,12.309-5.603,18.74l-0.48,1.807
	l-0.933,3.808c-1.476,5.972-3,12.146-3.759,18.226c-1.461,10.824-2.874,22.171-3.288,33.52c-0.343-0.445-0.671-0.896-0.988-1.353
	c-3.154-4.185-5.88-8.435-8.218-12.785c-2.746-5.052-4.362-9.043-5.246-12.965c-2.697-11.098-3.311-19.485-2.001-27.263
	c0.582-3.457,1.276-6.451,2.121-9.149c1.325-4.236,2.697-8.378,4.116-12.417c1.276-3.702,2.709-7.659,4.607-11.681
	c5.618-12.448,8.244-25.299,8.292-40.516l0.054-15.885l-8.652,13.325c-3.771,5.806-7.747,12.074-11.272,18.551
	c-3.311,6.517-6.445,13.185-9.383,19.936c-1.501,3.448-2.971,6.965-4.41,10.553c-1.107,2.752-1.964,5.449-2.834,8.201l-0.859,2.683
	c-1.076,3.434-2.115,6.911-3.111,10.413l-0.888-1.833c-3.976-7.559-6.117-16.482-6.814-28.222
	c-0.679-7.953,0.931-16.916,4.77-26.761c1.273-3.154,2.563-5.857,3.928-8.218c3.988-6.882,8.909-13.582,13.667-20.058l1.022-1.39
	c10.076-14.312,15.557-26.233,17.304-37.591l2.118-13.764l-9.996,9.697c-4.987,4.838-9.968,9.974-14.803,15.266
	c-5.218,5.732-10.239,11.361-14.361,17.284c-6.394,8.855-12.951,18.286-18.603,28.157c-0.109-0.585-0.206-1.173-0.286-1.758
	c-1.713-11.863-1.67-21.132,0.128-29.187c2.292-9.337,5.98-17.792,10.935-25.037c2.004-2.558,4.051-4.887,6.083-6.879
	c6.266-6.146,12.688-12.037,19.094-17.509c6.371-5.124,11.395-10.051,15.26-14.983c2.161-2.723,4.111-5.581,5.775-8.472l1.202-1.924
	c1.322-2.107,2.692-4.287,3.831-6.639l6.331-13.085l-12.774,6.936c-3.123,1.696-6.266,3.465-9.428,5.312
	c-2.512,1.499-4.781,3.066-7.105,4.673l-1.924,1.327c-5.969,4.162-11.943,8.601-17.792,13.216
	c-5.067,3.811-9.26,7.855-13.696,12.137l-3.211,3.083c-2.586,2.532-5.155,5.118-7.704,7.747l0.091-1.91
	c0.248-5.007,0.882-9.999,1.881-14.829c1.165-4.059,2.92-8.629,5.135-13.253c2.061-4.279,4.45-8.315,7.088-11.989
	c2.278-2.974,5.315-6.051,9.474-9.571c2.638-2.192,5.084-3.982,7.45-5.446l0.908-0.557c3.403-2.089,6.702-4.116,10.165-5.994
	c3.848-1.955,7.776-3.865,11.666-5.672c6.234-2.857,12.146-6.497,18.057-11.115c5.729-4.022,10.79-8.777,14.855-13.995l8.866-11.387
	l-13.861,4.022c-12.674,3.677-27.452,8.361-40.948,15.22c-7.302,3.511-13.967,6.956-20.284,10.487
	c-3.109,1.924-6.186,3.882-9.229,5.88l0.554-2.144c2.441-8.272,6.913-16.713,13.63-25.653c5.543-6.525,12.979-12.411,21.334-16.804
	c2.649-1.442,5.415-2.563,8.281-3.365c8.512-2.503,16.999-4.687,25.279-6.508c7.636-1.77,14.409-3.451,20.455-6.206
	c6.074-2.672,11.418-6.066,17.27-9.896l13.43-8.798l-16.054,0.208c-3.557,0.046-7.165,0.145-10.827,0.305
	c-3.691,0.308-7.196,0.702-10.776,1.13c-7.216,0.882-14.592,2.004-21.937,3.34c-6.825,1.296-13.133,3.091-19.816,4.99l-2.224,0.634
	c0,0-8.347,2.532-10.41,3.183c0.323-0.537,0.642-1.079,0.956-1.624c2.563-4.23,5.498-8.335,8.66-12.112
	c2.989-3.588,6.905-6.568,10.693-9.448c3.782-2.766,7.793-5.212,11.849-7.213c3.916-1.941,8.481-3.114,12.828-4.096
	c3.331-0.702,6.331-1.145,9.114-1.339l0.822-0.051c4.076-0.266,8.03-0.525,12.046-0.585c4.31,0.057,8.675,0.188,12.959,0.394
	c1.456,0.077,2.917,0.117,4.365,0.117c5.298,0,10.624-0.494,16.767-1.553c6.991-0.934,13.676-2.817,19.693-5.572l13.142-6.017
	l-14.175-2.823c-13.111-2.609-28.508-5.301-43.328-5.486c-4.479-0.154-9.163-0.251-13.916-0.251c-2.94,0-5.909,0.037-8.892,0.117
	c-3.628,0.248-7.262,0.548-10.898,0.894l1.476-1.618c6.017-6.203,13.884-11.595,23.949-16.376
	c8.107-3.214,17.427-4.984,26.672-4.998l0.719-0.006c2.429,0,5.212,0.305,8.272,0.913c8.638,1.698,17.161,3.679,25.339,5.886
	c6.757,1.844,13.99,3.608,21,4.005c1.647,0.114,3.343,0.177,5.021,0.177c1.753,0,3.491-0.069,5.209-0.203
	c1.028-0.077,2.081-0.126,3.137-0.174c2.278-0.108,4.576-0.223,6.794-0.577L229.295,80l-12.862-6.522
	c-3.169-1.607-6.408-3.194-9.722-4.753c-2.994-1.316-5.872-2.412-8.823-3.54l-1.247-0.474c-6.825-2.569-13.878-4.984-20.986-7.188
	c-6.217-1.958-12.174-3.186-18.483-4.487l-3.654-0.756l-3.457-0.651c-2.395-0.451-4.818-0.908-7.256-1.333
	c0.545-0.337,1.088-0.676,1.624-1.022c4.208-2.563,8.703-4.853,13.256-6.745c4.453-1.736,9.491-2.658,13.856-3.385
	c4.093-0.625,8.238-0.948,12.26-0.948l1.607,0.017c4.661,0.168,9.542,1.344,13.265,2.349c3.311,0.933,6.174,1.932,8.706,3.043
	c4.239,1.878,7.987,3.537,11.695,5.403c3.774,2.055,7.579,4.208,11.278,6.388c6.146,3.651,12.508,6.448,19.439,8.549
	c6.52,2.441,13.313,3.931,19.913,4.333l14.406,0.885l-11.152-9.166c-9.483-7.793-22.122-17.692-35.792-25.117
	c-7.242-4.139-13.864-7.673-20.156-10.756c-3.34-1.467-6.699-2.889-10.071-4.264l2.075-0.757c6.956-2.287,14.866-3.422,24.043-3.422
	c1.621,0,3.231,0.034,4.818,0.1c8.361,0.793,17.415,3.585,25.941,8.058c2.709,1.47,5.184,2.869,7.416,4.776
	c6.925,5.655,13.547,11.449,19.762,17.281c5.252,4.687,10.833,9.46,16.636,13.162c5.481,3.639,11.252,5.86,16.833,8.004
	l15.229,5.877l-8.312-12.334c-3.38-5.012-6.951-9.151-10.73-13.533l-2.777-3.24c-5.98-6.776-10.681-11.806-15.3-16.373
	c-5.552-5.092-11.278-10.048-17.147-14.846l-1.79-1.444c-2.212-1.784-4.456-3.594-6.74-5.361c0.029,0,1.75-0.089,1.75-0.089
	c2.032-0.16,3.922-0.237,5.803-0.237c17.358,0,34.265,6.434,46.385,17.649c2.446,2.369,4.516,4.63,6.254,6.845
	c2.74,3.485,5.367,6.956,7.896,10.41c2.743,3.659,5.018,7.059,6.993,10.442c7.088,11.709,16.179,21.154,28.656,29.792l13.034,9.023
	l-6.049-14.652c-2.472-5.992-5.461-13.028-8.872-19.796c-3.494-6.428-7.205-12.788-11.101-19.036
	c-5.735-9.665-12.286-18.212-19.876-27.306l2.052,0.311c10.71,1.23,20.101,6.209,27.103,10.407
	c6.888,3.919,13.356,10.327,19.319,19.102c1.864,2.82,3.36,5.415,4.539,7.887c3.551,7.627,6.408,15.851,9.169,23.806
	c1.319,3.899,2.686,7.259,4.199,10.387l1.262,2.677c1.062,2.278,2.144,4.584,3.365,6.685c3.031,5.512,6.942,10.676,12.249,16.153
	l10.019,10.336l-2.03-14.25c-0.971-6.825-2.386-13.259-4.133-20.96l-0.816-3.345c-1.49-6.134-3.029-12.48-5.252-18.346
	c-3.511-9.768-7.57-20.689-12.634-31.248c0.522,0.237,1.036,0.488,1.544,0.751c4.704,2.244,9.091,4.756,13.188,7.542
	c3.716,2.566,7.624,5.392,10.667,9.014c7.322,8.338,11.886,15.714,14.435,23.293c1.065,3.297,1.833,6.277,2.332,9.054l0.551,3.268
	c1.282,7.573,2.489,14.726,2.903,22.191c0.811,13.701,4.47,26.312,11.521,39.706l7.362,13.987l1.436-15.74
	c0.585-6.445,1.202-14.055,1.319-21.651c-0.094-7.293-0.414-14.655-0.945-22.022l-0.979-11.324
	c-0.368-3.191-0.879-6.132-1.404-9.134l-0.394-2.278c-0.631-3.528-1.316-7.088-2.049-10.659l1.616,1.205
	c7.082,4.93,13.29,12.029,19.111,21.794c4.293,6.759,7.039,15.437,8.229,25.904c0.343,3.36,0.462,6.351,0.36,9.094
	c-0.451,8.384-1.673,16.998-2.989,25.813c-0.565,3.6-0.908,7.205-1.013,10.684c-0.2,3.423-0.408,6.962-0.265,10.436
	c0.143,7.47,1.767,14.278,3.337,19.941l3.888,14.018l5.01-13.659c2.286-6.231,3.896-12.303,5.6-18.731l0.48-1.813l0.933-3.808
	c1.476-5.972,3-12.146,3.759-18.226c1.464-10.818,2.877-22.165,3.291-33.517c0.34,0.442,0.668,0.894,0.985,1.35
	c3.148,4.179,5.877,8.429,8.221,12.785c2.746,5.055,4.359,9.049,5.244,12.965c2.698,11.098,3.311,19.482,2.004,27.263
	c-0.585,3.462-1.282,6.457-2.124,9.146c-1.324,4.239-2.698,8.378-4.116,12.423c-1.276,3.699-2.709,7.656-4.607,11.678
	c-5.615,12.44-8.238,25.291-8.289,40.514l-0.054,15.888l8.652-13.327c3.771-5.809,7.747-12.075,11.272-18.546
	c3.314-6.54,6.451-13.205,9.38-19.938c1.501-3.448,2.971-6.965,4.41-10.553c1.108-2.758,1.967-5.458,2.84-8.215l0.854-2.672
	c1.073-3.428,2.112-6.902,3.111-10.413l0.888,1.835c3.979,7.567,6.123,16.487,6.814,28.222c0.679,7.947-0.928,16.91-4.77,26.761
	c-1.262,3.134-2.552,5.84-3.925,8.224c-3.979,6.865-8.892,13.55-13.644,20.016l-1.048,1.427
	c-10.076,14.312-15.557,26.233-17.304,37.591l-2.118,13.764l9.996-9.697c4.978-4.83,9.959-9.965,14.806-15.263
	c5.218-5.735,10.236-11.366,14.358-17.287c6.394-8.855,12.951-18.283,18.603-28.157c0.108,0.585,0.206,1.17,0.285,1.758
	c1.713,11.863,1.67,21.129-0.128,29.187c-2.292,9.337-5.98,17.792-10.935,25.037c-2.004,2.558-4.051,4.887-6.083,6.879
	c-6.246,6.129-12.668,12.017-19.091,17.507c-6.368,5.121-11.395,10.051-15.26,14.986c-2.155,2.715-4.107,5.572-5.777,8.466
	l-1.208,1.935c-1.322,2.107-2.686,4.285-3.822,6.637l-6.314,13.073l12.757-6.928c3.123-1.696,6.263-3.465,9.425-5.312
	c2.521-1.507,4.793-3.074,7.122-4.684l1.907-1.316c5.977-4.17,11.952-8.609,17.792-13.216c5.061-3.805,9.246-7.841,13.676-12.12
	l3.231-3.103c2.583-2.529,5.155-5.112,7.704-7.744l-0.091,1.91c-0.251,5.018-0.882,10.014-1.878,14.826
	c-1.165,4.056-2.923,8.629-5.138,13.259c-2.061,4.273-4.447,8.312-7.085,11.986c-2.281,2.977-5.318,6.054-9.477,9.571
	c-2.637,2.189-5.087,3.982-7.453,5.449l-0.845,0.517c-3.422,2.101-6.737,4.139-10.222,6.032c-3.851,1.952-7.776,3.865-11.669,5.672
	c-6.231,2.86-12.143,6.5-18.055,11.115c-5.726,4.022-10.79,8.775-14.852,13.993l-8.872,11.387l13.861-4.019
	c12.671-3.677,27.446-8.358,40.95-15.226c7.305-3.508,13.97-6.953,20.281-10.482c3.1-1.915,6.174-3.876,9.229-5.88l-0.554,2.144
	c-2.443,8.275-6.914,16.716-13.63,25.653c-5.543,6.525-12.979,12.411-21.329,16.801c-2.649,1.444-5.415,2.563-8.284,3.365
	c-8.509,2.503-16.993,4.687-25.279,6.511c-6.237,1.444-13.936,3.231-20.461,6.206c-6.066,2.672-11.409,6.063-17.264,9.894
	l-13.445,8.797l16.065-0.208c3.557-0.046,7.165-0.146,10.824-0.303c3.699-0.311,7.205-0.702,10.781-1.133
	c7.205-0.879,14.581-2.001,21.934-3.337c6.816-1.293,13.119-3.089,19.79-4.987l2.249-0.639c0,0,8.324-2.523,10.41-3.183
	c-0.323,0.537-0.642,1.079-0.953,1.621c-2.558,4.225-5.489,8.329-8.661,12.112c-2.997,3.6-6.911,6.577-10.696,9.454
	c-3.774,2.76-7.784,5.204-11.849,7.213c-3.911,1.938-8.475,3.114-12.828,4.096c-3.334,0.699-6.337,1.142-9.114,1.336l-0.685,0.043
	c-4.122,0.271-8.118,0.534-12.183,0.597c-4.31-0.057-8.672-0.188-12.957-0.397c-1.45-0.077-2.906-0.114-4.344-0.114
	c-5.306,0-10.642,0.494-16.79,1.553c-7.002,0.936-13.687,2.82-19.693,5.575l-13.128,6.02l14.164,2.817
	c13.784,2.74,28.57,5.304,43.325,5.486c4.479,0.154,9.163,0.251,13.918,0.251c2.94,0,5.906-0.037,8.892-0.117
	c3.642-0.251,7.276-0.548,10.896-0.894l-1.476,1.618c-6.017,6.203-13.884,11.595-23.949,16.376
	c-8.101,3.211-17.424,4.981-26.675,4.998l-0.697,0.006c-2.441,0-5.229-0.308-8.289-0.914c-8.652-1.701-17.175-3.679-25.342-5.889
	c-6.762-1.844-13.993-3.605-20.998-4.002c-1.65-0.114-3.351-0.177-5.035-0.177c-1.747,0-3.48,0.066-5.192,0.197
	c-1.048,0.083-2.109,0.131-3.177,0.183c-2.264,0.106-4.55,0.223-6.754,0.571l-14.238,2.252l12.848,6.534
	c3.168,1.613,6.414,3.197,9.725,4.756c2.997,1.319,5.877,2.418,8.837,3.548l1.233,0.468c6.788,2.555,13.841,4.97,20.986,7.188
	c6.22,1.958,12.177,3.186,18.483,4.487l3.654,0.756l3.42,0.642c2.406,0.454,4.841,0.914,7.293,1.342
	c-0.545,0.334-1.085,0.674-1.621,1.019c-4.207,2.56-8.703,4.853-13.259,6.745c-4.43,1.73-9.48,2.657-13.858,3.388
	c-4.088,0.625-8.232,0.948-12.254,0.948l-1.607-0.017c-4.644-0.168-9.534-1.344-13.268-2.349c-3.286-0.925-6.151-1.927-8.709-3.046
	c-4.299-1.904-8.015-3.551-11.686-5.404c-3.782-2.055-7.587-4.208-11.284-6.388c-6.157-3.654-12.52-6.451-19.439-8.549
	c-6.525-2.438-13.316-3.928-19.91-4.33l-14.407-0.885l11.152,9.166c9.485,7.796,22.131,17.698,35.792,25.114
	c7.199,4.116,13.819,7.65,20.153,10.756c3.331,1.464,6.691,2.886,10.071,4.265l-2.072,0.754c-6.959,2.292-14.869,3.428-24.046,3.428
	c-1.621,0-3.228-0.034-4.816-0.1c-8.364-0.794-17.421-3.588-25.944-8.058c-2.809-1.524-5.178-2.866-7.413-4.776
	c-6.925-5.658-13.544-11.447-19.762-17.281c-4.904-4.379-10.556-9.289-16.642-13.162c-5.475-3.64-11.241-5.855-16.819-8.001
	l-15.24-5.886l8.315,12.34c3.383,5.015,6.953,9.154,10.733,13.536l2.775,3.237c5.969,6.768,10.667,11.797,15.297,16.37
	c5.581,5.121,11.307,10.073,17.147,14.849l1.815,1.461c2.206,1.778,4.439,3.58,6.714,5.344c-0.014,0-1.753,0.089-1.753,0.089
	C319.325,594.44,317.435,594.517,315.557,594.517z"></path>
<path id="frame_x5F_1_116_" d="M583.804,316.777c-5.552,5.278-10.439,10.321-16.582,14.94c-5.886,4.643-11.738,8.984-17.535,13.027
	c-2.943,2.012-5.681,3.99-8.746,5.821c-3.12,1.821-6.22,3.567-9.3,5.24c1.376-2.849,3.217-5.558,4.87-8.268
	c1.573-2.727,3.38-5.367,5.409-7.923c4.008-5.115,9.109-9.882,14.615-14.31c6.411-5.48,12.871-11.388,19.328-17.726
	c2.386-2.34,4.579-4.895,6.668-7.578c5.284-7.721,9.223-16.806,11.641-26.658c2.192-9.823,1.716-20.322,0.197-30.848
	c-0.668-4.82-2.227-9.466-3.32-14.204c-6.568,13.811-15.586,26.865-24.041,38.574c-4.068,5.844-9.131,11.483-13.97,16.801
	c-4.867,5.32-9.745,10.341-14.612,15.063c1.901-12.361,8.595-24.373,16.453-35.535c5.03-6.855,10.556-14.255,14.972-21.875
	c1.621-2.812,2.994-5.786,4.23-8.86c3.437-8.808,5.932-18.838,5.084-28.736c-0.588-9.961-2.301-20.536-7.273-29.98l-6.351-13.141
	c-1.95,7.699-4.059,15.138-6.305,22.305c-1.176,3.606-2.161,7.048-3.588,10.595c-1.422,3.545-2.874,7.021-4.356,10.426
	c-2.963,6.81-6.04,13.335-9.2,19.568c-3.443,6.32-7.336,12.461-11.087,18.238c0.043-12.773,1.938-25.447,7.844-38.534
	c1.912-4.057,3.383-8.045,4.79-12.125c1.436-4.093,2.826-8.285,4.168-12.574c0.99-3.168,1.707-6.435,2.272-9.768
	c1.61-9.586,0.348-19.185-2.055-29.068c-1.128-4.998-3.223-9.613-5.686-14.148c-2.446-4.548-5.292-8.991-8.495-13.236
	c-2.774-4.006-6.328-7.364-9.503-11.039c0.614,15.254-1.336,31.068-3.26,45.29c-0.882,7.069-2.917,14.553-4.57,21.412
	c-1.858,6.988-3.528,13.53-5.952,20.136c-1.693-6.105-3.043-12.232-3.171-18.883c-0.134-3.284,0.071-6.731,0.268-10.103
	c0.1-3.306,0.422-6.69,0.962-10.135c1.259-8.417,2.56-17.433,3.037-26.327c0.123-3.241-0.048-6.508-0.385-9.8
	c-1.068-9.382-3.537-19.394-8.86-27.771c-5.109-8.575-11.578-17.058-20.332-23.148l-11.692-8.714c1.83,7.73,3.4,15.305,4.721,22.705
	c0.637,3.729,1.316,7.29,1.75,11.029l0.973,11.257c0.534,7.408,0.839,14.619,0.933,21.614c-0.111,7.203-0.676,14.434-1.302,21.297
	c-5.952-11.306-10.142-23.451-10.99-37.783c-0.488-8.826-2.024-17.066-3.52-26.031c-0.588-3.27-1.464-6.5-2.503-9.718
	c-3.074-9.144-8.575-17.168-15.286-24.807c-3.3-3.931-7.362-6.939-11.621-9.876c-4.273-2.908-8.855-5.537-13.662-7.825
	c-4.324-2.248-9.054-3.549-13.57-5.35c7.644,13.238,13.265,28.111,18.132,41.655c2.515,6.633,4.182,14.2,5.88,21.069
	c1.599,7.042,3.086,13.703,4.065,20.584c-4.393-4.533-8.364-9.432-11.566-15.256c-1.65-2.83-3.014-6.07-4.459-9.042
	c-1.442-2.98-2.72-6.132-3.836-9.44c-2.789-8.033-5.78-16.701-9.52-24.73c-1.396-2.929-3.066-5.745-4.893-8.506
	c-5.309-7.811-12.149-15.573-20.781-20.484c-8.543-5.121-18.206-9.803-28.807-11.02l-14.427-2.188
	c10.427,12.103,19.824,23.214,27.58,36.284c3.928,6.3,7.556,12.53,10.893,18.666c3.245,6.439,6.097,13.106,8.726,19.476
	c-10.499-7.269-19.853-16.036-27.28-28.306c-2.258-3.868-4.69-7.417-7.259-10.844c-2.558-3.496-5.218-7.01-7.99-10.538
	c-2.047-2.607-4.33-5.043-6.757-7.391C320.064,6.794,299.66-0.66,278.403,1.051c-4.85,0.252-9.705,0.408-14.501,1.302
	c6.434,3.981,12.665,9.141,18.563,13.882c5.906,4.829,11.512,9.688,16.819,14.552c5.306,5.245,10.313,10.738,15.023,16.075
	c4.69,5.523,9.157,10.37,13.193,16.359c-5.966-2.303-11.809-4.421-17.355-8.107c-5.558-3.54-10.898-8.119-15.951-12.627
	c-6.211-5.829-12.854-11.652-19.924-17.426c-2.62-2.239-5.386-3.792-8.281-5.362c-8.306-4.359-17.898-7.646-27.922-8.589
	c-9.899-0.407-20.549,0.273-30.654,3.604l-13.721,4.997c7.37,2.752,14.458,5.632,21.26,8.616c6.931,3.396,13.616,7.03,19.981,10.668
	c12.651,6.869,24.514,15.955,35.056,24.619c-6.286-0.387-12.563-1.802-18.842-4.141c-6.177-1.873-12.323-4.482-18.42-8.103
	c-3.745-2.208-7.596-4.388-11.549-6.535c-3.899-1.965-7.841-3.704-11.92-5.511c-3.006-1.317-6.146-2.369-9.366-3.278
	c-4.61-1.242-9.54-2.334-14.384-2.507c-4.815-0.103-9.754,0.231-14.735,0.992c-4.941,0.824-10.073,1.806-14.88,3.682
	c-4.756,1.975-9.454,4.364-13.998,7.133c-4.082,2.632-8.452,4.845-12.277,7.854c7.63,0.658,15.557,2.29,22.939,3.658
	c7.51,1.578,14.518,2.868,21.714,5.134c7.17,2.225,14.075,4.595,20.701,7.087c3.323,1.271,6.531,2.466,9.751,3.881
	c3.271,1.537,6.468,3.102,9.597,4.691c-3.123,0.495-6.42,0.463-9.563,0.708c-3.14,0.243-6.343,0.245-9.602,0.017
	c-6.468-0.366-13.382-2.034-20.044-3.85c-8.175-2.207-16.733-4.206-25.648-5.959c-3.297-0.653-6.688-1.066-9.908-0.996
	c-9.38,0.016-19.285,1.718-28.673,5.449c-8.935,4.246-18.003,9.824-25.399,17.451l-9.819,10.774
	c7.798-0.974,15.414-1.71,22.824-2.222c7.71-0.21,15.303-0.117,22.625,0.134c14.384,0.179,29.178,2.752,42.472,5.397
	c-5.723,2.621-11.915,4.327-18.543,5.215c-6.437,1.111-13.014,1.759-20.113,1.374c-4.339-0.206-8.758-0.34-13.253-0.396
	c-4.37,0.065-8.669,0.357-13.122,0.648c-3.274,0.228-6.543,0.751-9.817,1.439c-4.647,1.048-9.557,2.327-13.87,4.466
	c-4.322,2.133-8.546,4.711-12.611,7.684c-3.982,3.029-8.152,6.213-11.446,10.169c-3.308,3.946-6.374,8.233-9.132,12.785
	c-2.421,4.213-5.258,8.196-7.213,12.665c6.962-3.014,14.838-5.182,22-7.396c7.376-2.089,14.275-4.132,21.6-5.522
	c7.396-1.344,14.621-2.437,21.657-3.295c3.525-0.424,6.976-0.811,10.422-1.102c3.614-0.157,7.176-0.257,10.684-0.302
	c-5.386,3.526-10.664,6.921-16.645,9.553c-5.889,2.684-12.874,4.354-19.522,5.894c-8.281,1.822-16.807,4.005-25.536,6.573
	c-3.28,0.917-6.36,2.184-9.197,3.73c-8.304,4.366-16.37,10.437-22.896,18.133c-5.949,7.92-11.409,17.084-14.418,27.29l-3.66,14.134
	c6.443-4.505,12.834-8.709,19.145-12.616c6.748-3.772,13.51-7.221,20.118-10.398c12.828-6.521,27.08-11.115,40.134-14.9
	c-3.865,4.964-8.572,9.335-14.044,13.184c-5.115,3.996-10.693,7.597-17.147,10.557c-3.939,1.831-7.918,3.765-11.929,5.804
	c-3.848,2.088-7.499,4.353-11.304,6.685c-2.789,1.729-5.435,3.715-8.007,5.853c-3.651,3.088-7.29,6.538-10.253,10.414
	c-2.806,3.906-5.321,8.163-7.507,12.695c-2.169,4.532-4.079,9.334-5.498,14.331c-1.039,5.029-1.707,10.246-1.972,15.553L0,300
	c5.386-5.891,10.793-11.484,16.196-16.777c5.552-5.278,10.442-10.321,16.582-14.94c5.886-4.643,11.74-8.984,17.535-13.027
	c2.943-2.012,5.681-3.99,8.746-5.822c3.12-1.82,6.223-3.567,9.303-5.24c-1.379,2.85-3.22,5.558-4.873,8.269
	c-1.573,2.727-3.38,5.367-5.406,7.923c-4.008,5.115-9.111,9.883-14.615,14.31c-6.414,5.48-12.871,11.388-19.33,17.726
	c-2.386,2.341-4.579,4.896-6.668,7.578c-5.284,7.721-9.223,16.806-11.641,26.658c-2.192,9.823-1.716,20.322-0.197,30.848
	c0.668,4.82,2.227,9.466,3.32,14.204c6.568-13.811,15.588-26.865,24.041-38.573c4.068-5.844,9.131-11.483,13.973-16.801
	c4.864-5.32,9.742-10.341,14.609-15.063c-1.901,12.361-8.595,24.373-16.453,35.535c-5.029,6.855-10.553,14.255-14.969,21.875
	c-1.624,2.812-2.994,5.786-4.233,8.86c-3.437,8.809-5.929,18.838-5.084,28.736c0.591,9.961,2.301,20.536,7.273,29.98l6.354,13.141
	c1.947-7.699,4.056-15.138,6.303-22.305c1.176-3.606,2.161-7.048,3.588-10.595c1.421-3.545,2.874-7.021,4.356-10.426
	c2.963-6.81,6.04-13.335,9.203-19.568c3.44-6.32,7.333-12.461,11.087-18.238c-0.043,12.773-1.941,25.447-7.847,38.534
	c-1.913,4.057-3.383,8.045-4.79,12.125c-1.436,4.093-2.826,8.285-4.168,12.574c-0.99,3.168-1.707,6.435-2.269,9.768
	c-1.613,9.587-0.351,19.185,2.052,29.068c1.127,4.999,3.223,9.613,5.689,14.148c2.443,4.548,5.289,8.991,8.492,13.236
	c2.774,4.006,6.328,7.364,9.502,11.039c-0.611-15.254,1.339-31.068,3.26-45.29c0.882-7.069,2.917-14.553,4.57-21.412
	c1.858-6.988,3.528-13.53,5.954-20.136c1.693,6.105,3.04,12.232,3.171,18.883c0.131,3.284-0.071,6.731-0.271,10.103
	c-0.1,3.306-0.422,6.69-0.962,10.135c-1.256,8.417-2.558,17.433-3.034,26.327c-0.126,3.241,0.049,6.508,0.385,9.799
	c1.065,9.382,3.537,19.394,8.857,27.771c5.112,8.575,11.578,17.058,20.335,23.148l11.689,8.714
	c-1.827-7.73-3.397-15.305-4.721-22.705c-0.637-3.729-1.316-7.29-1.747-11.029l-0.973-11.257
	c-0.534-7.408-0.839-14.619-0.936-21.614c0.111-7.203,0.679-14.435,1.302-21.298c5.954,11.307,10.145,23.451,10.99,37.783
	c0.491,8.826,2.024,17.066,3.522,26.031c0.585,3.27,1.462,6.5,2.501,9.718c3.074,9.144,8.575,17.168,15.289,24.807
	c3.297,3.931,7.359,6.939,11.618,9.877c4.273,2.908,8.858,5.536,13.662,7.825c4.325,2.248,9.054,3.549,13.57,5.35
	c-7.642-13.238-13.262-28.112-18.129-41.656c-2.518-6.633-4.182-14.199-5.88-21.069c-1.598-7.043-3.089-13.703-4.068-20.584
	c4.396,4.533,8.364,9.432,11.569,15.256c1.647,2.83,3.014,6.07,4.459,9.042c1.439,2.98,2.717,6.133,3.834,9.44
	c2.789,8.033,5.783,16.701,9.52,24.73c1.396,2.929,3.066,5.745,4.895,8.506c5.307,7.811,12.146,15.573,20.778,20.484
	c8.544,5.121,18.209,9.803,28.81,11.02l14.424,2.188c-10.425-12.103-19.822-23.214-27.58-36.284
	c-3.925-6.299-7.553-12.53-10.893-18.666c-3.243-6.439-6.097-13.106-8.723-19.476c10.499,7.269,19.85,16.036,27.277,28.306
	c2.258,3.867,4.693,7.417,7.262,10.844c2.555,3.496,5.218,7.01,7.99,10.538c2.044,2.607,4.33,5.042,6.754,7.391
	c13.95,12.905,34.351,20.36,55.608,18.648c4.85-0.252,9.705-0.409,14.501-1.302c-6.434-3.981-12.665-9.141-18.563-13.882
	c-5.906-4.829-11.512-9.688-16.819-14.552c-5.306-5.245-10.313-10.738-15.02-16.075c-4.693-5.523-9.157-10.37-13.193-16.359
	c5.963,2.303,11.806,4.42,17.352,8.107c5.561,3.54,10.901,8.119,15.954,12.627c6.211,5.828,12.854,11.652,19.921,17.425
	c2.62,2.239,5.386,3.793,8.281,5.362c8.309,4.36,17.898,7.646,27.925,8.589c9.897,0.407,20.547-0.273,30.654-3.604l13.719-4.997
	c-7.367-2.752-14.458-5.632-21.26-8.616c-6.928-3.397-13.613-7.03-19.978-10.668c-12.654-6.869-24.514-15.955-35.056-24.619
	c6.286,0.387,12.56,1.802,18.84,4.141c6.18,1.873,12.323,4.483,18.42,8.103c3.745,2.208,7.596,4.388,11.552,6.536
	c3.896,1.965,7.841,3.704,11.918,5.511c3.009,1.317,6.146,2.369,9.368,3.278c4.61,1.241,9.537,2.334,14.384,2.507
	c4.813,0.103,9.754-0.231,14.732-0.992c4.944-0.824,10.076-1.805,14.883-3.682c4.753-1.975,9.451-4.364,13.995-7.133
	c4.085-2.632,8.452-4.845,12.277-7.854c-7.627-0.659-15.557-2.29-22.939-3.658c-7.51-1.578-14.518-2.868-21.711-5.134
	c-7.173-2.225-14.078-4.595-20.704-7.087c-3.323-1.271-6.531-2.466-9.751-3.881c-3.268-1.537-6.468-3.102-9.594-4.691
	c3.123-0.495,6.42-0.463,9.56-0.708c3.143-0.243,6.346-0.245,9.605-0.017c6.465,0.366,13.382,2.034,20.041,3.85
	c8.175,2.207,16.733,4.206,25.65,5.959c3.297,0.653,6.688,1.065,9.905,0.996c9.383-0.016,19.288-1.718,28.673-5.449
	c8.937-4.246,18.003-9.824,25.399-17.451l9.819-10.773c-7.798,0.974-15.411,1.71-22.822,2.221
	c-7.713,0.21-15.303,0.117-22.627-0.134c-14.384-0.179-29.178-2.752-42.469-5.397c5.72-2.621,11.912-4.327,18.54-5.215
	c6.437-1.111,13.016-1.759,20.113-1.374c4.339,0.206,8.758,0.34,13.253,0.397c4.373-0.065,8.669-0.357,13.122-0.648
	c3.277-0.228,6.545-0.751,9.819-1.439c4.644-1.048,9.557-2.326,13.87-4.466c4.319-2.133,8.546-4.711,12.608-7.684
	c3.982-3.029,8.152-6.213,11.446-10.169c3.308-3.946,6.377-8.233,9.131-12.785c2.424-4.213,5.261-8.196,7.216-12.665
	c-6.965,3.014-14.84,5.182-22.002,7.396c-7.373,2.089-14.275,4.132-21.6,5.522c-7.393,1.344-14.621,2.437-21.657,3.295
	c-3.522,0.424-6.973,0.811-10.422,1.103c-3.611,0.157-7.173,0.257-10.684,0.302c5.386-3.526,10.667-6.921,16.645-9.553
	c5.889-2.684,12.876-4.354,19.525-5.894c8.281-1.822,16.804-4.005,25.533-6.573c3.28-0.917,6.363-2.184,9.2-3.73
	c8.301-4.366,16.368-10.437,22.893-18.133c5.952-7.92,11.409-17.084,14.418-27.29l3.659-14.135
	c-6.443,4.505-12.831,8.709-19.142,12.616c-6.748,3.772-13.513,7.221-20.121,10.398c-12.828,6.522-27.08,11.114-40.131,14.9
	c3.865-4.964,8.572-9.335,14.044-13.184c5.115-3.996,10.693-7.597,17.144-10.557c3.942-1.831,7.918-3.765,11.929-5.804
	c3.851-2.088,7.502-4.353,11.304-6.684c2.789-1.729,5.435-3.715,8.007-5.853c3.654-3.088,7.293-6.538,10.256-10.414
	c2.803-3.906,5.318-8.163,7.504-12.695c2.169-4.532,4.079-9.334,5.501-14.331c1.039-5.029,1.704-10.246,1.97-15.553L600,300
	C594.614,305.891,589.207,311.484,583.804,316.777z M560.831,364.008l-0.32,0.2c-7.539,4.572-14.529,8.87-22.202,12.51
	c-7.898,3.669-14.84,7.987-20.669,12.94c-6.1,4.848-11.866,10.006-16.094,16.089c-1.958,3.075-4.573,5.814-6.426,9.047l-5.703,9.427
	c10.696-1.738,22.462-3.822,33.586-7.189c7.864-2.455,15.931-5.278,24.163-8.491c4.225-1.559,8.078-3.39,11.974-5.319
	c3.919-1.919,7.873-3.937,11.857-6.057c-1.921,3.289-4.042,6.397-6.337,9.281c-1.159,1.438-2.318,2.838-3.597,4.144
	c-1.373,1.265-2.786,2.471-4.23,3.613c-5.789,4.571-12.117,8.118-18.78,10.439l-0.348,0.122c-7.99,2.851-16.827,4.761-24.86,6.627
	c-4.151,0.91-8.101,2.046-11.832,3.402c-3.905,1.24-7.781,2.572-11.338,4.189c-7.171,3.197-13.231,7.445-19.439,11.814
	c-2.94,2.258-5.709,4.686-8.204,7.464c-2.329,2.866-5.366,5.021-7.995,7.582c11.432,1.485,22.536,1.486,34.339,1.036
	c4.222-0.159,8.515-0.394,12.874-0.71c4.165-0.475,8.344-1.075,12.614-1.734c8.458-1.376,17.458-2.89,26.144-5.121
	c-5.267,5.474-11.661,9.692-18.069,12.969c-3.271,1.587-6.471,3.016-9.988,3.913c-3.565,0.859-7.165,1.422-10.767,1.676
	l-0.377,0.026c-8.803,0.532-17.016,1.061-25.493,0.731c-8.698-0.416-16.85,0.195-24.32,1.887
	c-7.707,1.414-15.157,3.383-21.734,6.816c-3.191,1.785-6.785,2.983-9.908,5.017l-9.403,5.741
	c10.288,3.419,21.614,6.922,33.098,9.182c8.101,1.457,16.55,2.683,25.325,3.643c4.453,0.563,8.772,0.797,13.091,0.87
	c4.359,0.12,8.795,0.168,13.305,0.143c-12.577,8.506-28.025,11.066-41.907,9.061l-0.365-0.054
	c-8.466-1.274-17.121-3.577-25.114-5.657c-4.096-1.109-8.115-1.922-12.049-2.443c-4.091-0.815-8.095-1.347-12.003-1.581
	s-7.719-0.169-11.435,0.212c-3.665,0.504-7.59,0.468-11.238,1.222c-3.642,0.635-7.213,1.5-10.707,2.802
	c-3.377,1.477-7.071,1.936-10.585,2.975c9.423,6.669,19.233,11.805,29.892,16.89c3.811,1.818,7.721,3.601,11.729,5.344
	c3.939,1.583,7.893,2.926,11.986,4.333c8.141,2.715,16.776,5.45,25.565,7.596c-7.262,2.312-14.841,3.182-22.045,3.105
	c-3.642-0.123-7.111-0.274-10.679-1.185c-3.557-0.892-7.008-2.062-10.316-3.508l-0.345-0.152
	c-8.044-3.613-15.557-6.951-22.904-11.185c-7.504-4.428-15.003-7.698-22.391-9.693c-7.442-2.203-14.98-4.114-22.391-4.149
	c-3.651,0.098-7.367-0.266-11.104-0.1l-11.024,0.562c3.774,4.017,7.747,8.042,11.926,12.063c4.182,4.026,8.575,8.155,13.094,11.545
	c6.491,5.099,13.396,10.157,20.718,15.131c7.327,5.021,14.843,8.844,22.89,13.15c-3.799,0.283-7.564,0.296-11.241,0.039
	c-1.841-0.128-3.657-0.324-5.449-0.588c-1.816-0.386-3.614-0.893-5.375-1.433c-7.051-2.189-13.565-5.405-19.259-9.588l-0.3-0.219
	l-5.092-3.813l-4.981-4.265c-3.271-2.865-6.437-5.738-9.5-8.614c-6.223-5.929-12.728-10.189-19.436-14.678
	c-3.354-2.084-6.765-3.862-10.236-5.318c-3.474-1.448-7.022-2.475-10.564-3.875c-3.514-1.211-7.07-2.186-10.759-2.739
	c-3.617-0.613-7.313-0.857-10.821-1.982c2.6,5.245,5.586,9.654,8.7,14.461c3.126,4.738,6.454,9.52,9.985,14.331l3.865,5.168
	l4.065,4.755c2.766,3.156,5.632,6.322,8.603,9.492c2.969,3.169,6.043,6.343,9.223,9.515l4.844,4.734l4.998,4.289
	c-1.873-0.26-3.719-0.532-5.538-0.963c-1.818-0.543-3.605-1.148-5.358-1.811c-3.5-1.326-6.856-2.889-10.025-4.674
	c-6.328-3.683-11.946-7.718-16.425-13.712l-0.237-0.3c-5.452-6.948-10.482-13.85-15.097-20.662
	c-4.698-6.899-9.697-13.876-15.309-19.086c-5.692-5.027-11.449-10.272-17.909-13.988c-3.131-1.97-6.577-3.205-9.865-4.996
	l-9.908-4.799c1.433,5.366,3.046,10.837,4.844,16.4c1.733,5.72,4.042,10.595,6.328,16.062c3.371,7.543,7.008,15.664,11.284,23.138
	c4.319,7.34,9.046,14.796,14.19,22.326c-6.962-3.162-13.293-7.211-18.663-11.956c-5.258-5.111-9.454-11.244-12.542-17.639
	l-0.16-0.338c-1.858-3.904-3.62-7.771-5.281-11.596c-1.59-3.991-3.003-8.131-4.364-12.119c-1.373-4.077-2.943-7.933-4.701-11.547
	c-1.747-3.64-3.782-6.858-5.68-10.437c-3.879-6.986-8.797-12.548-14.081-17.857c-2.535-2.73-5.212-5.272-8.207-7.502
	c-2.863-2.299-6.094-4.146-8.678-6.786c0.1,11.258,1.444,22.281,3.094,34.229c1.259,8.436,3.388,16.33,5.589,24.866
	c1.136,4.217,2.363,8.487,3.682,12.804c1.384,4.196,2.994,8.201,4.63,12.38c-3.032-2.296-6.006-4.501-8.466-7.348
	c-2.466-2.837-4.693-5.815-6.648-8.899c-3.854-6.263-6.882-12.558-8.167-19.763l-0.068-0.377c-1.561-8.715-2.772-17.193-3.662-25.4
	c-0.528-4.076-1.039-8.303-1.75-12.395c-0.739-4.058-1.718-7.933-2.943-11.611c-2.683-7.126-5.378-14.433-9.383-20.736
	c-1.875-3.196-4.347-5.909-6.411-9.039l-6.588-8.84c-2.398,10.824-4.593,22.542-5.144,33.962c-0.511,8.248-1.059,17.12-0.748,25.723
	c0.4,8.515,1.102,17.32,2.132,26.379c-4.673-6.042-8.378-12.576-10.913-19.28c-2.281-6.959-3.148-14.334-2.914-21.428l0.011-0.374
	c0.165-4.319,0.402-8.559,0.705-12.719c0.502-4.324,1.116-8.603,1.764-12.777c0.668-4.245,1.059-8.387,1.167-12.403
	c0.083-4-0.123-7.871-0.168-11.908c-0.194-7.991-2.081-15.144-4.205-22.344c-0.985-3.586-2.186-7.071-3.811-10.426
	c-1.504-3.343-3.46-6.497-4.516-10.028c-5.212,10.036-9.049,20.388-13.131,31.739c-2.897,8.115-4.567,16.043-6.582,24.635
	c-0.939,4.259-1.824,8.607-2.646,13.04c-0.816,4.429-1.165,8.667-1.673,13.138c-3.594-6.639-5.232-14.134-5.852-21.408
	c-0.502-7.342-0.368-14.268,1.935-21.308l0.114-0.365c2.643-8.442,5.489-16.511,8.495-24.186c1.404-3.847,2.994-7.862,4.23-11.797
	c1.227-3.934,2.161-7.814,2.783-11.634c0.919-7.542,1.952-15.254,1.364-22.687c-0.165-3.695-1.05-7.244-1.507-10.954l-1.633-10.893
	c-3.619,4.231-7.222,8.668-10.793,13.309c-3.662,4.66-6.42,9.34-9.611,14.324c-4.296,7.057-8.943,14.665-12.651,22.424
	c-3.599,7.723-7.062,15.849-10.347,24.36c-1.342-7.528-1.596-15.041-0.728-22.157c1.205-7.225,3.894-14.168,7.407-20.34l0.188-0.324
	c2.161-3.747,4.35-7.391,6.56-10.93c2.309-3.56,4.984-7.087,7.484-10.47c5.292-6.91,8.92-13.895,12.157-21.032
	c3.48-7.171,5.726-14.4,6.611-21.775c0.859-3.639,1.484-7.291,1.673-11.024l0.52-11.027c-8.718,6.545-17.569,13.89-26.438,22.051
	c-5.723,5.833-11.455,12.08-17.155,18.741c-2.826,3.328-5.74,6.769-8.466,10.296c-2.52,3.508-5.027,7.12-7.516,10.835
	c0.126-3.795,0.442-7.516,1.15-11.131c0.962-3.638,2.172-7.161,3.622-10.522c2.9-6.726,6.765-12.799,11.506-17.95l0.248-0.27
	c6.36-6.236,12.728-12.054,19.054-17.455c3.274-2.737,6.012-5.61,8.912-8.526c2.98-2.907,5.68-5.904,8.078-8.992
	c2.401-3.087,4.499-6.266,6.28-9.544c1.733-3.291,3.936-6.514,5.395-9.943c1.541-3.361,2.852-6.793,3.757-10.409
	c0.722-3.613,2.418-6.922,3.557-10.404c-5.118,2.079-10.861,4.18-15.685,6.785c-4.993,2.551-10.056,5.297-15.172,8.243
	c-3.657,2.106-7.339,4.314-11.047,6.625c-3.614,2.33-6.894,4.836-10.385,7.406c-6.891,5.158-13.847,10.732-20.826,16.725
	c5.058-14.525,12.999-27.046,25.805-34.521l0.322-0.199c7.539-4.572,14.527-8.87,22.199-12.51c7.901-3.669,14.84-7.987,20.669-12.94
	c6.1-4.848,11.866-10.006,16.093-16.089c1.961-3.075,4.573-5.814,6.426-9.047l5.703-9.427c-10.696,1.738-22.459,3.822-33.586,7.189
	c-7.864,2.455-15.931,5.278-24.163,8.49c-4.225,1.56-8.078,3.391-11.974,5.319c-3.916,1.919-7.873,3.937-11.858,6.057
	c1.921-3.29,4.042-6.397,6.34-9.281c1.159-1.438,2.318-2.838,3.594-4.144c1.373-1.265,2.786-2.471,4.233-3.613
	c5.786-4.571,12.114-8.118,18.777-10.439l0.348-0.122c7.992-2.851,16.827-4.761,24.862-6.627c4.148-0.91,8.098-2.046,11.829-3.403
	c3.905-1.24,7.784-2.572,11.341-4.189c7.168-3.197,13.228-7.445,19.439-11.814c2.937-2.258,5.706-4.686,8.204-7.465
	c2.326-2.866,5.363-5.021,7.995-7.582c-11.432-1.485-22.536-1.486-34.342-1.036c-4.222,0.159-8.512,0.394-12.871,0.71
	c-4.168,0.475-8.344,1.075-12.617,1.734c-8.458,1.376-17.458,2.89-26.144,5.121c5.267-5.474,11.663-9.692,18.069-12.969
	c3.274-1.587,6.471-3.016,9.991-3.914c3.562-0.858,7.162-1.422,10.764-1.675l0.377-0.026c8.803-0.532,17.016-1.061,25.493-0.731
	c8.698,0.416,16.853-0.195,24.32-1.887c7.707-1.414,15.16-3.383,21.737-6.816c3.188-1.785,6.782-2.983,9.905-5.017l9.405-5.742
	c-10.29-3.419-21.617-6.921-33.1-9.182c-8.101-1.456-16.55-2.683-25.322-3.643c-4.456-0.563-8.775-0.798-13.093-0.87
	c-4.359-0.119-8.795-0.168-13.305-0.142c12.58-8.506,28.028-11.066,41.907-9.062l0.365,0.054c8.466,1.274,17.121,3.577,25.114,5.657
	c4.096,1.109,8.118,1.923,12.049,2.443c4.09,0.815,8.095,1.347,12.003,1.581s7.721,0.169,11.435-0.211
	c3.665-0.504,7.593-0.468,11.238-1.222c3.645-0.635,7.216-1.5,10.707-2.802c3.38-1.477,7.073-1.936,10.585-2.975
	c-9.42-6.669-19.231-11.805-29.892-16.89c-3.811-1.818-7.719-3.601-11.726-5.344c-3.942-1.583-7.895-2.926-11.989-4.333
	c-8.141-2.715-16.773-5.45-25.562-7.596c7.259-2.312,14.838-3.182,22.045-3.105c3.642,0.123,7.111,0.274,10.676,1.185
	c3.56,0.892,7.008,2.062,10.316,3.508l0.348,0.152c8.044,3.613,15.557,6.951,22.902,11.185c7.507,4.428,15.003,7.698,22.393,9.693
	c7.439,2.203,14.98,4.114,22.391,4.149c3.648-0.097,7.367,0.266,11.101,0.099l11.024-0.562c-3.771-4.017-7.747-8.043-11.926-12.063
	c-4.179-4.026-8.575-8.155-13.094-11.545c-6.488-5.099-13.396-10.158-20.715-15.131c-7.33-5.021-14.846-8.844-22.89-13.15
	c3.797-0.283,7.562-0.296,11.241-0.039c1.838,0.128,3.657,0.324,5.446,0.588c1.816,0.387,3.617,0.893,5.375,1.433
	c7.051,2.189,13.564,5.405,19.262,9.588l0.297,0.219l5.095,3.813l4.981,4.265c3.271,2.865,6.437,5.738,9.497,8.614
	c6.226,5.929,12.728,10.189,19.436,14.679c3.354,2.084,6.765,3.862,10.236,5.318c3.474,1.448,7.025,2.475,10.567,3.875
	c3.514,1.211,7.068,2.186,10.759,2.738c3.614,0.613,7.31,0.857,10.818,1.982c-2.598-5.245-5.586-9.654-8.698-14.461
	c-3.129-4.738-6.454-9.52-9.988-14.331l-3.865-5.168l-4.065-4.755c-2.763-3.156-5.632-6.322-8.601-9.492
	c-2.971-3.17-6.046-6.343-9.223-9.515l-4.844-4.734l-5.001-4.289c1.873,0.26,3.722,0.532,5.538,0.963
	c1.818,0.544,3.605,1.148,5.358,1.811c3.502,1.326,6.859,2.889,10.028,4.673c6.326,3.682,11.943,7.718,16.422,13.712l0.237,0.3
	c5.452,6.949,10.482,13.85,15.1,20.662c4.698,6.899,9.697,13.876,15.306,19.086c5.692,5.027,11.449,10.272,17.909,13.988
	c3.131,1.97,6.58,3.205,9.865,4.996l9.911,4.799c-1.436-5.366-3.049-10.837-4.847-16.4c-1.733-5.72-4.042-10.595-6.328-16.062
	c-3.371-7.543-7.005-15.664-11.284-23.138c-4.319-7.34-9.046-14.796-14.187-22.326c6.959,3.162,13.29,7.21,18.66,11.956
	c5.258,5.111,9.457,11.244,12.543,17.639l0.163,0.337c1.858,3.904,3.617,7.771,5.278,11.596c1.59,3.991,3.003,8.131,4.365,12.119
	c1.373,4.077,2.943,7.933,4.704,11.547c1.747,3.64,3.782,6.858,5.68,10.436c3.879,6.986,8.795,12.548,14.081,17.857
	c2.532,2.73,5.212,5.271,8.207,7.502c2.86,2.299,6.094,4.146,8.675,6.787c-0.1-11.258-1.444-22.281-3.094-34.229
	c-1.259-8.436-3.388-16.33-5.589-24.867c-1.136-4.217-2.361-8.487-3.682-12.803c-1.384-4.196-2.994-8.201-4.63-12.38
	c3.031,2.296,6.009,4.501,8.466,7.348c2.466,2.837,4.693,5.815,6.651,8.899c3.853,6.263,6.882,12.558,8.167,19.763l0.066,0.377
	c1.561,8.715,2.774,17.193,3.662,25.4c0.528,4.076,1.039,8.303,1.75,12.395c0.739,4.058,1.718,7.933,2.943,11.61
	c2.686,7.127,5.381,14.433,9.386,20.736c1.872,3.196,4.344,5.909,6.411,9.039l6.585,8.84c2.398-10.824,4.593-22.542,5.144-33.962
	c0.511-8.248,1.059-17.12,0.748-25.723c-0.4-8.515-1.099-17.319-2.132-26.379c4.676,6.042,8.381,12.576,10.913,19.28
	c2.284,6.959,3.148,14.334,2.917,21.428l-0.014,0.374c-0.165,4.319-0.402,8.56-0.705,12.719c-0.5,4.324-1.113,8.604-1.764,12.778
	c-0.668,4.245-1.056,8.387-1.165,12.403c-0.083,4,0.123,7.871,0.168,11.908c0.191,7.991,2.078,15.144,4.202,22.344
	c0.985,3.586,2.186,7.071,3.814,10.426c1.501,3.343,3.46,6.498,4.516,10.028c5.212-10.036,9.046-20.388,13.128-31.739
	c2.897-8.114,4.567-16.043,6.582-24.634c0.939-4.259,1.824-8.607,2.646-13.04c0.816-4.429,1.167-8.666,1.676-13.138
	c3.594,6.639,5.229,14.134,5.849,21.408c0.502,7.342,0.368,14.268-1.935,21.308l-0.114,0.365
	c-2.643,8.442-5.486,16.511-8.492,24.186c-1.407,3.847-2.997,7.861-4.233,11.797c-1.227,3.934-2.161,7.814-2.783,11.634
	c-0.919,7.542-1.952,15.254-1.364,22.686c0.168,3.695,1.053,7.245,1.51,10.955l1.633,10.893c3.617-4.231,7.219-8.668,10.79-13.309
	c3.662-4.66,6.42-9.34,9.611-14.324c4.299-7.057,8.943-14.665,12.654-22.424c3.597-7.724,7.059-15.85,10.345-24.36
	c1.342,7.528,1.596,15.041,0.731,22.157c-1.207,7.225-3.896,14.168-7.41,20.339l-0.186,0.324c-2.164,3.747-4.35,7.391-6.56,10.93
	c-2.309,3.56-4.987,7.087-7.487,10.47c-5.289,6.91-8.917,13.894-12.157,21.032c-3.48,7.171-5.726,14.4-6.608,21.775
	c-0.862,3.639-1.484,7.291-1.676,11.024l-0.517,11.028c8.715-6.545,17.566-13.89,26.435-22.051
	c5.723-5.833,11.458-12.08,17.155-18.741c2.829-3.328,5.74-6.769,8.469-10.296c2.521-3.508,5.027-7.12,7.513-10.836
	c-0.126,3.795-0.442,7.515-1.15,11.131c-0.959,3.638-2.169,7.161-3.622,10.522c-2.9,6.725-6.765,12.799-11.504,17.95l-0.248,0.27
	c-6.363,6.236-12.728,12.054-19.057,17.455c-3.274,2.737-6.012,5.61-8.909,8.526c-2.983,2.907-5.683,5.904-8.081,8.992
	s-4.496,6.266-6.28,9.545c-1.73,3.29-3.933,6.514-5.395,9.942c-1.541,3.362-2.852,6.793-3.757,10.409
	c-0.719,3.613-2.418,6.922-3.557,10.403c5.118-2.079,10.864-4.18,15.685-6.785c4.995-2.551,10.056-5.297,15.172-8.243
	c3.657-2.106,7.342-4.314,11.047-6.625c3.617-2.33,6.893-4.836,10.385-7.406c6.891-5.158,13.847-10.732,20.826-16.725
	C581.577,344.013,573.636,356.533,560.831,364.008z" fill="rgba(255, 255, 255, 1.0)"></path></g></g><g><g data-element="icon" transform="scale(0.13333312988312293) translate(881.2556064236633 506.25748587462294)"><path id="color_x5F_2_5_" fill="#00A79D" d="M457.487,78.678l26.787,10.551c0,0-171.917,117.593-172.798,118.196    c-8.531,5.835-23.188,8.577-30.132-1.432c-4.726-6.815,3.526-11.427,8.37-14.679C299.503,184.74,452.57,81.979,457.487,78.678z     M131.572,126.447c8.262,11.139,25.097,6.416,34.719,0.07C206.229,100.173,327.526,26.6,327.526,26.6l-27.26-10.506    c-36.382,24.425-148.326,88.088-158.833,93.436C132.691,113.98,127.526,120.99,131.572,126.447z M209.255,166.841    c7.131,10.276,21.402,7.135,30.128,1.433c0.008-0.005,164.722-107.633,164.722-107.633l-27.148-10.462    c-31.966,21.46-149.545,95.409-159.334,101.982C212.78,155.413,204.528,160.025,209.255,166.841z"></path> <path id="color_x5F_1_5_" fill="#1C75BC" d="M510.153,105.268c0-3.094-1.72-5.931-4.463-7.361c-2.745-1.432-6.055-1.216-8.591,0.555    c-7.12,4.972-172.558,120.494-177.235,123.763c-0.013,0.009-0.025,0.018-0.038,0.026c-0.028,0.019-0.076,0.053-0.084,0.059    c-12.796,9.137-31.492,5.447-44.888-0.204c-7.129-3.007-17.466-10.574-17.076-19.24c0.365-8.094,8.479-13.855,14.676-17.701    c15.218-9.446,29.957-19.317,44.992-29.075c30.695-19.923,105.507-68.93,112.302-73.374c3.831-2.52,4.892-7.668,2.373-11.498    c-2.521-3.831-7.671-4.892-11.498-2.373c0,0-169.313,111.308-169.603,111.502c-16.864,11.297-44.535,16.095-61.138-1.984    c-12.404-13.506-1.416-27.967,4.059-30.993l158.379-98.276c3.896-2.419,5.092-7.537,2.674-11.432    c-2.419-3.895-7.537-5.091-11.432-2.674c0,0-170.807,106.382-171.07,106.557c-18.434,12.167-43.071,10.926-58.586-2.948    c-7.146-6.39-11.468-22.959,7.501-32.737c0.12-0.062,154.81-90.39,154.81-90.39c3.959-2.312,5.294-7.396,2.982-11.355    c-2.312-3.958-7.395-5.295-11.355-2.982L113.546,91.236c-19.595,10.753-23.504,23.298-23.504,37.687v344.885    c-1.082,9.713,1.868,29.382,20.692,38.24c16.701,7.859,35.509,11.708,53.148,4.53c0.413,7.021,3.347,26.286,22.765,35.423    c17.053,8.023,36.454,11.839,54.448,3.98c0.295,6.505,2.849,26.587,22.795,35.974c21.622,10.173,45.053,12.006,65.36-2.185    c0.96-0.67,177.354-123.844,177.354-123.844c2.673-1.868,3.901-5.023,3.449-8.043C510.112,457.484,510.153,105.268,510.153,105.268z     M493.55,454.791c-20.468,14.292-123.911,86.526-160.756,112.255V233.446c20.418-14.259,123.89-86.512,160.756-112.255V454.791z     M106.572,475.417l0.073-321.336c6.889,8.061,34.561,15.809,57.173,9.593v334.383c-13.367,8.12-27.712,8.512-46.016-1.032    C112.405,494.21,106.572,490.571,106.572,475.417z M193.715,536.978c-13.469-6.336-13.31-21.828-13.299-22.428l0.005-0.143V192.201    c7.273,9.051,35.313,20.858,60.64,9.733v335.212C227.287,546.121,213.013,546.06,193.715,536.978z M270.958,576.932    c-13.466-6.338-13.31-21.83-13.299-22.428l0.005-0.144V233.033c7.511,6.592,42.193,16.923,58.525,8.947v336.427    C303.06,586.043,289.273,585.55,270.958,576.932z M470.66,208.618l-106.814,74.714v-18.817l106.814-73.608V208.618z     M363.845,332.035v-18.817l106.814-73.608v17.71L363.845,332.035z"></path></g><text transform="translate(243.687744140625 127.43954467773438)" fill="rgba(255, 255, 255, 1.0)" font-family="Gravitas One" font-size="64" data-element="company-name" dx="0 0 0 0 0 0">UniLib</text></g></g></svg>