<svg xmlns="http://www.w3.org/2000/svg" viewBox="0 0 315 215" class="svg-logo" width="315" height="215" style="height: auto;"><rect rx="10" ry="10" width="100%" height="100%" fill="rgba(12, 84, 188, 1.0)"></rect><g data-element="wrapper" transform="translate(9.72693977355705 48.37500209808248) scale(0.5500000000000094)"><g data-element="container" transform="translate(87.63827180209226 37.63827180209225) scale(0.23287242732635915)"><g><path id="frame_x5F_1_42_" d="M328.7,0L300,16.6L271.3,0L33,137.6v275.1l28.7,16.6v33.2L300,600l238.3-137.6v-33.2l28.7-16.6v-275
	L328.7,0z M76.1,162.5L300,33.2l223.9,129.3V421L300,550.3L76.1,421V162.5z M47.4,404.4V145.9L271.3,16.6l14.4,8.3l-224,129.3v258.5
	L47.4,404.4z M300,583.4L76.1,454.1v-16.6L300,566.8l223.9-129.3v16.6L300,583.4z M552.6,404.4l-14.4,8.3V154.2L314.3,24.9l14.4-8.3
	l223.9,129.3V404.4L552.6,404.4z" fill="rgba(255, 255, 255, 1.0)"></path></g></g><g><g data-element="icon" transform="scale(0.14166619110267067) translate(811.7726279040497 458.8307942019501)"><path id="color_x5F_3" fill="rgba(255, 255, 255, 1.0)" d="M281.459,514.244H300v-10.251h-46.42c-5.567,0-10.08-4.513-10.08-10.08    c0-5.567,4.513-10.08,10.08-10.08H300V472.56h-46.42c-5.567,0-10.08-4.513-10.08-10.08c0-5.567,4.513-10.08,10.08-10.08H300v-11.274    h-5.683v-117.71H300l0-18.038h-5.682v-12.368c0-16.765-13.643-30.403-30.407-30.403c-16.765,0-30.403,13.638-30.403,30.403    c0,16.765,13.638,30.405,30.403,30.405h12.37v117.71h-24.939c-6.989,0-13.242-4.785-14.619-11.637    c-5.381-26.782-26.907-50.034-26.907-50.034l0.016-0.006c-34.611-28.081-55.881-71.961-52.769-120.675    c4.462-69.831,60.087-126.791,129.467-133.218C257.356,95.701,176.997,38.375,9.398,71.908C3.924,73.003,0,77.868,0,83.45v396.653    c0,7.367,6.728,12.917,13.963,11.527c139.616-26.816,217.772,9.876,255.894,39.675c5.296,4.14,11.639,4.891,17.138,3.161    c-5.032-3.243-8.783-8.303-10.302-14.261C275.92,517.175,278.331,514.244,281.459,514.244z M263.91,305.379    c-6.817,0-12.365-5.548-12.365-12.368c0-6.819,5.548-12.365,12.365-12.365c6.821,0,12.37,5.546,12.37,12.365v12.368H263.91z"></path> <path id="color_x5F_2" fill="rgba(255, 255, 255, 1.0)" d="M590.602,71.908c-167.619-33.537-247.978,23.808-277.14,53.66    c72.796,6.786,129.779,68.041,129.779,142.61c0,44.93-20.702,85.01-53.069,111.272l0.016,0.006c0,0-21.526,23.252-26.908,50.034    c-1.377,6.852-7.631,11.637-14.619,11.637h-24.938v-117.71h12.365c16.765,0,30.408-13.64,30.408-30.405    c0-16.765-13.643-30.403-30.408-30.403c-16.764,0-30.403,13.638-30.403,30.403v12.368h-5.683v18.038h5.683v117.71h-5.683V452.4    h46.42c5.567,0,10.08,4.513,10.08,10.08c0,5.567-4.513,10.08-10.08,10.08h-46.42v11.273h46.42c5.567,0,10.08,4.513,10.08,10.08    c0,5.567-4.513,10.08-10.08,10.08h-46.42v10.251h18.54c3.128,0,5.54,2.931,4.767,5.962c-1.52,5.958-5.27,11.018-10.302,14.261    c5.499,1.73,11.842,0.979,17.138-3.161c38.122-29.799,116.278-66.491,255.894-39.675c7.236,1.389,13.963-4.16,13.963-11.528V83.45    C600,77.868,596.076,73.003,590.602,71.908z M323.721,293.011c0-6.819,5.549-12.365,12.365-12.365c6.821,0,12.37,5.546,12.37,12.365    c0,6.819-5.549,12.368-12.37,12.368h-12.365V293.011z"></path> <path id="color_x5F_1" fill="#FFFFFF" d="M356.5,462.479c0,5.567-4.513,10.08-10.08,10.08h-46.42H300h-46.42    c-5.567,0-10.08-4.513-10.08-10.08c0-5.567,4.513-10.08,10.08-10.08H300h0.001h46.42C351.987,452.4,356.5,456.913,356.5,462.479z     M346.42,483.833h-46.42H300h-46.42c-5.567,0-10.08,4.513-10.08,10.08c0,5.567,4.513,10.08,10.08,10.08H300h0.001h46.42    c5.567,0,10.08-4.513,10.08-10.08C356.5,488.346,351.987,483.833,346.42,483.833z M318.541,514.244h-18.54H300h-18.541    c-3.128,0-5.54,2.931-4.767,5.962c1.52,5.958,5.27,11.018,10.302,14.261c3.751,2.417,8.211,3.829,13.005,3.829    c4.794,0,9.254-1.412,13.005-3.829c5.032-3.243,8.783-8.303,10.302-14.261C324.08,517.175,321.669,514.244,318.541,514.244z     M348.457,293.011c0-6.819-5.549-12.365-12.37-12.365c-6.817,0-12.365,5.546-12.365,12.365v12.368h12.365    C342.908,305.379,348.457,299.83,348.457,293.011z M263.91,280.646c-6.817,0-12.365,5.546-12.365,12.365    c0,6.819,5.548,12.368,12.365,12.368h12.37v-12.368C276.28,286.192,270.731,280.646,263.91,280.646z M300.001,441.126h5.683v-117.71    h-5.683H300h-5.682v117.71H300.001L300.001,441.126L300.001,441.126z M443.24,268.177c0-74.569-56.982-135.824-129.779-142.61    c-7.711-0.719-15.598-0.832-23.615-0.279c-1.11,0.076-2.216,0.166-3.319,0.268c-69.38,6.427-125.005,63.387-129.467,133.218    c-3.112,48.715,18.158,92.594,52.769,120.675l-0.016,0.006c0,0,21.526,23.252,26.907,50.034c1.377,6.852,7.63,11.637,14.619,11.637    h24.939v-117.71h-12.37c-16.765,0-30.403-13.64-30.403-30.405c0-16.765,13.638-30.403,30.403-30.403    c16.765,0,30.407,13.638,30.407,30.403v12.368H300h0.001h5.683v-12.368c0-16.765,13.639-30.403,30.403-30.403    c16.765,0,30.408,13.638,30.408,30.403c0,16.765-13.643,30.405-30.408,30.405h-12.365v117.71h24.938    c6.989,0,13.242-4.785,14.619-11.637c5.381-26.782,26.908-50.034,26.908-50.034l-0.016-0.006    C422.539,353.188,443.24,313.107,443.24,268.177z"></path></g><text transform="translate(229.67581176757812 127.80883026123047)" fill="rgba(255, 255, 255, 1.0)" font-family="Prata" font-size="64" data-element="company-name" dx="0 0 0 0 0 0">UniLib</text></g></g></svg>