<svg xmlns="http://www.w3.org/2000/svg" viewBox="0 0 315 215" class="svg-logo" width="315" height="215" style="height: auto;"><rect rx="10" ry="10" width="100%" height="100%" fill="rgba(3, 129, 255, 1.0)"></rect><g data-element="wrapper" transform="translate(6.425166320798411 42.99999771118063) scale(0.6000000000000094)"><g data-element="container" transform="translate(87.63843818141454 37.638147694637205) scale(0.2328726781557684)"><g><path id="fill_x5F_1" fill="transparent" d="M299.997,42.421c111.545,0,201.97,90.425,201.97,201.97s-90.425,201.97-201.97,201.97
	s-201.97-90.425-201.97-201.97S188.452,42.421,299.997,42.421z"></path>
<path id="frame_x5F_1_144_" d="M594.744,333.988c-4.515,16.631-15.816,30.487-28.124,37.383c-12.263,6.249-23.736,5.084-32.625-0.25
	l-4.268,8.966c-1.34,3.096-3.043,5.996-4.823,8.854l-5.199,8.653c-1.767,2.864-3.4,5.816-5.275,8.608l-1.877,2.537
	c2.294-1.871,4.625-3.683,6.827-5.502c6.029-4.634,12.813-8.331,20.102-10.793c13.947-5.227,27.098-4.594,36.807,2.65
	c-2.248,4.092-4.703,8.033-7.439,11.65c-3.008,3.467-6.209,6.666-9.539,9.509c-6.736,5.642-13.606,10.095-21.493,11.922
	c-14.363,3.724-25.839-0.019-33.939-7.722c-6.655,8.654-14.145,16.636-21.574,24.639l-10.015,9.191
	c10.133-5.22,20.951-8.903,31.871-10.414c16.353-1.761,29.889,1.891,38.314,11.82c-6.674,7.63-15.024,13.614-23.142,18.279
	c-3.996,2.405-8.573,3.866-12.891,5.076c-4.359,1.17-8.672,1.874-12.864,2.064c-4.195,0.191-8.06-0.141-11.589-0.926
	c-3.575-0.836-6.924-2.257-9.84-3.936c-5.076-2.94-9.024-6.96-12.032-11.604c-2.887,2.173-5.814,4.303-8.656,6.537
	c-10.469,7.492-21.453,14.316-32.867,20.335c3.115-0.646,6.236-1.224,9.333-1.716c8.664-1.55,17.642-1.739,26.505-0.458
	c17.051,1.651,30.657,9.291,36.823,21.75c-4.579,3.104-9.333,5.885-14.14,8.268c-4.856,2.313-10.087,3.764-15.075,5.029
	c-5.03,1.205-9.993,1.963-14.785,2.229c-4.751,0.332-9.676-0.454-14.129-1.384c-16.815-3.784-26.354-13.807-30.356-26.071
	c-7.52,3.328-15.185,6.331-23.027,8.867c-9.11,2.882-18.365,5.249-27.713,7.164c3.4,0.218,6.784,0.474,10.106,0.715
	c9.472,1.032,19.006,3.897,27.649,6.97c17.433,6.814,29.636,18.614,32.534,33.212c-5.758,1.854-11.607,3.321-17.398,4.357
	c-5.798,1.014-11.473,1.792-17.188,1.332c-11.347-0.665-21.749-2.62-30.525-7.357c-16.42-9.047-23.328-22.275-23.862-36.064
	c-11.043,1.501-22.176,2.396-33.343,2.627c-11.167-0.231-22.299-1.126-33.343-2.627c-0.534,13.788-7.442,27.017-23.862,36.064
	c-8.777,4.738-19.176,6.692-30.525,7.357c-5.715,0.46-11.39-0.318-17.188-1.332c-5.79-1.035-11.64-2.503-17.398-4.357
	c2.898-14.598,15.102-26.398,32.534-33.212c8.643-3.073,18.177-5.938,27.649-6.97c3.322-0.241,6.706-0.497,10.106-0.715
	c-9.349-1.915-18.604-4.283-27.713-7.164c-7.842-2.536-15.507-5.539-23.027-8.867c-4.002,12.264-13.541,22.287-30.356,26.071
	c-4.45,0.93-9.378,1.716-14.129,1.384c-4.791-0.266-9.754-1.024-14.785-2.228c-4.987-1.266-10.219-2.717-15.075-5.03
	c-4.807-2.383-9.561-5.164-14.14-8.268c6.166-12.458,19.772-20.099,36.823-21.75c8.863-1.28,17.841-1.091,26.505,0.458
	c3.097,0.492,6.217,1.07,9.333,1.716c-11.414-6.019-22.398-12.843-32.867-20.335c-2.842-2.233-5.769-4.364-8.656-6.537
	c-3.008,4.644-6.956,8.665-12.032,11.604c-2.917,1.679-6.266,3.1-9.84,3.936c-3.529,0.785-7.394,1.117-11.589,0.926
	c-4.192-0.19-8.506-0.895-12.864-2.064c-4.319-1.211-8.895-2.671-12.891-5.076c-8.119-4.665-16.469-10.65-23.142-18.279
	c8.425-9.929,21.961-13.581,38.314-11.819c10.92,1.511,21.741,5.194,31.876,10.415l-10.02-9.193
	c-7.429-8.003-14.919-15.984-21.574-24.639c-8.1,7.703-19.576,11.447-33.939,7.722c-7.888-1.827-14.758-6.279-21.493-11.922
	c-3.33-2.843-6.532-6.042-9.54-9.51c-2.737-3.617-5.191-7.557-7.439-11.65c9.709-7.245,22.86-7.877,36.807-2.65
	c7.289,2.462,14.073,6.158,20.102,10.792c2.202,1.819,4.533,3.631,6.827,5.503l-1.877-2.538c-1.872-2.792-3.507-5.744-5.272-8.608
	l-5.202-8.653c-1.781-2.858-3.483-5.758-4.824-8.854l-4.265-8.966c-8.892,5.334-20.366,6.5-32.628,0.25
	c-12.308-6.895-23.61-20.751-28.124-37.382c10.155-4.659,22.484-2.821,33.982,4.688c5.696,3.786,11.613,8.324,16.179,13.724
	c1.918,2.199,3.655,4.547,5.283,6.974l-5.992-16.471c-2.42-7.416-4.466-14.951-6.223-22.554c-4.313,1.502-8.925,2.095-13.697,1.411
	c-5.267-0.791-11.226-3.039-16.079-7.354C8.804,305.877,1.01,291.336,0,275.579c10.111-2.406,21.005,1.411,30.082,10.316
	c4.547,4.466,9.064,9.689,12.244,15.453c1.491,2.625,2.742,5.371,3.905,8.176c-2.387-12.755-3.849-25.677-4.343-38.636
	c-8.938,1.275-18.402-1.678-26.312-10.639c-3.859-4.744-6.792-10.679-8.761-17.278c-1.823-6.588-2.267-13.821-1.942-21.085
	c9.607-0.519,19.049,4.742,26.137,14.417c3.416,4.841,6.309,10.34,8.382,16.161c0.988,2.769,1.649,5.616,2.304,8.506
	c-0.003-12.191,0.83-24.373,2.554-36.429c-8.506-0.247-16.632-4.486-22.224-13.98c-3.062-5.006-4.649-10.853-5.272-17.15
	c-0.298-3.143-0.441-6.418-0.18-9.687c0.338-3.249,0.921-6.535,1.724-9.788c8.927,1.051,16.67,7.287,21.488,17.21
	c2.637,5.033,4.337,10.513,5.138,16.138c0.395,2.608,0.69,5.272,0.846,7.951c1.893-10.418,4.426-20.72,7.662-30.819
	c0.191-0.632,0.422-1.249,0.62-1.88c-7.702-1.489-14.97-6.794-18.413-16.27c-1.81-4.951-2.678-10.635-2.35-16.472
	c0.491-5.764,1.899-11.798,4.225-17.519c8.03,2.274,14.237,9.085,17.433,18.997c1.576,4.955,2.095,10.138,2.248,15.525
	c0.059,2.662-0.177,5.297-0.564,7.928c3.373-9.413,7.41-18.583,11.704-27.603c0.295-0.563,0.602-1.119,0.897-1.681
	c-6.983-2.517-12.556-8.268-14.618-17.58c-1.16-4.895-0.994-10.102,0.174-15.343c1.123-5.266,3.099-10.65,6.207-15.407
	c7.155,3.236,11.771,10.181,13.367,19.716c0.835,4.801,0.763,9.736-0.097,14.561c-0.414,2.699-1.039,5.394-1.826,8.051
	c4.858-8.933,10.061-17.679,16.036-25.906c-6.126-3.231-10.565-9.322-11.35-18.243c-0.478-8.952,2.976-19.294,9.776-27.294
	c6.123,3.829,9.719,10.947,9.822,19.773c0.341,7.354-1.748,14.539-5.028,21.309c5.715-7.868,12-15.297,18.558-22.468
	c-5.269-3.705-8.742-9.998-8.299-18.241c0.607-8.32,4.99-17.362,12.131-23.919c5.2,4.246,7.713,11.216,6.792,19.375
	c-0.459,4.088-1.504,8.323-3.298,12.175c-1.171,2.508-2.648,4.901-4.23,7.245c0.427-0.459,0.843-0.928,1.273-1.385
	c4.109-4.049,8.291-8.032,12.566-11.91c1.456-7.08,5.747-14.872,13.203-20.271c7.383-5.945,16.463-7.854,23.725-7.263
	c-2.339,7.377-7.611,13.801-14.532,19.394c-6.916,4.996-14.285,8.091-21.638,8.647c-4.278,3.952-8.46,8.013-12.566,12.135
	c-0.465,0.506-0.918,1.024-1.383,1.532c2.283-1.752,4.7-3.295,7.297-4.365c3.897-1.611,7.826-2.607,11.873-2.437
	c8.116,0.342,14.14,4.274,17.736,9.907c-6.352,4.515-13.635,7.701-21.639,7.66c-7.574,0.101-13.957-2.588-18.163-7.556
	c-6.268,6.987-12.276,14.209-17.752,21.827c5.277-4.824,11.884-7.909,18.332-8.657c8.704-0.713,15.644,2.697,20.239,8.218
	c-6.126,5.602-13.38,9.968-21.929,10.994c-7.872,1.23-15.171-0.746-20.33-5.356c-5.801,8.143-10.842,16.781-15.537,25.595
	c1.662-2.036,3.47-3.908,5.468-5.509c3.889-2.965,8.154-5.143,12.585-6.239c8.957-2.149,17.043,0.656,22.672,5.82
	c-2.879,3.365-5.93,6.536-9.548,9.066c-3.663,2.502-7.754,4.455-11.967,5.764c-8.231,2.406-16.315,1.433-22.492-2.613
	c-0.287,0.561-0.588,1.117-0.876,1.678c-4.179,9.002-8.1,18.142-11.358,27.513c1.437-2.242,3.075-4.329,4.762-6.25
	c3.365-3.894,7.743-6.805,12.343-8.631c9.18-3.686,17.972-2.032,24.861,2.615c-2.248,4.1-5.1,7.846-8.653,11.018
	c-3.384,3.24-7.187,6.028-11.659,8.008c-8.54,3.753-16.82,4.233-24.133,1.003c-0.191,0.625-0.414,1.239-0.596,1.866
	c-3.137,10.117-5.559,20.427-7.337,30.84c1.015-2.531,2.221-4.95,3.714-7.168c3.193-4.649,7.077-8.549,11.527-11.293
	c9.37-5.383,18.958-5.075,27.05-1.316c-0.881,2.324-1.971,4.57-3.266,6.722c-1.211,2.173-2.463,4.296-4.002,6.278
	c-3.046,3.971-6.908,7.488-11.03,10.408c-8.052,5.474-17.18,7.409-25.374,5.363c-1.547,11.606-2.251,23.314-2.181,35.019
	c0.626-2.488,1.472-4.921,2.441-7.22c2.337-5.523,5.653-10.37,10.163-14.057c8.774-7.415,18.872-8.796,28.181-6.283
	c-0.808,5.212-2.785,10.227-5.277,14.956c-2.342,4.738-5.613,9.154-9.754,12.992c-7.227,7.253-16.369,11.039-25.471,10.438
	c0.591,12.423,2.081,24.794,4.431,36.997c0.215-2.611,0.583-5.197,1.158-7.683c1.542-6.314,3.722-12.032,7.786-16.785
	c8.143-9.536,18.676-12.887,28.954-12.021c-0.798,11.27-3.233,22.369-10.624,32.121c-3.795,4.88-7.38,8.682-11.954,11.513
	c-3.932,2.472-8.258,4.042-12.77,4.656c1.802,7.481,3.891,14.888,6.343,22.17l5.935,15.855c-0.301-2.796-0.478-5.582-0.408-8.31
	c0.293-6.988,1.335-13.46,4.67-19.322c6.553-11.721,16.96-17.357,27.99-18.604c1.558,11.785,1.195,23.861-4.504,35.678
	c-4.689,10.755-12.47,18.827-22.294,22.382l4.286,8.79c1.345,3.034,3.048,5.87,4.829,8.666l5.2,8.462
	c1.762,2.799,3.392,5.687,5.261,8.413l1.918,2.538c-1.104-2.671-2.046-5.382-2.452-8.276c-1.289-7.418-1.192-14.725,0.556-21.387
	c4.104-13.694,14.073-22.028,25.294-25.791c1.158,2.912,1.985,5.971,2.616,9.095c0.908,2.978,1.528,6.067,1.858,9.25
	c0.73,6.313-0.054,13.27-1.098,19.689c-2.406,12.266-8.847,22.741-18.19,28.783c6.618,8.441,14.057,16.208,21.413,23.995l9.76,8.785
	c-6.131-9.228-9.531-19.76-8.801-30.113c0.567-14.942,9.212-26.112,20.062-32.769c3.69,5.508,7.077,11.183,8.957,17.905
	c0.876,3.431,2.012,6.504,2.637,9.944c0.666,3.398,1.037,6.952,1.093,10.622c0.051,3.669-0.215,7.271-0.784,10.746
	c-0.526,3.423-1.249,6.586-2.363,9.682c-1.896,5.317-4.81,10.112-8.616,14.159c2.855,2.103,5.745,4.163,8.549,6.327
	c10.2,7.15,20.878,13.65,31.949,19.379c-2.184-1.937-4.262-3.964-6.048-6.223c-5.267-6.924-9.029-14.437-10.689-22.163
	c-2.718-16.434,3.207-29.819,12.878-39.655c2.632,2.289,5.033,4.858,7.211,7.697c2.221,2.768,4.531,5.333,6.427,8.424
	c1.936,3.029,3.636,6.319,5.089,9.845c1.415,3.593,2.919,6.787,3.937,10.564c3.891,13.686,3.156,27.842-2.831,39.069
	c7.375,3.182,14.889,6.042,22.568,8.444c8.479,2.592,17.084,4.713,25.758,6.449c-2.511-1.299-4.939-2.737-7.168-4.501
	c-7.474-5.508-13.64-11.712-17.263-19.986c-7.493-15.936-4.977-31.282,2.344-44.262c3.333,1.474,6.505,3.308,9.518,5.495
	c3.021,2.165,5.828,4.88,8.718,7.153c5.68,4.795,10.627,11.5,14.919,18.486c7.917,12.706,11.376,27.434,8.554,40.81
	c10.78,1.361,21.636,2.131,32.513,2.257c10.877-0.126,21.732-0.896,32.513-2.257c-2.823-13.377,0.637-28.105,8.557-40.811
	c4.289-6.986,9.239-13.691,14.916-18.486c2.89-2.273,5.696-4.989,8.718-7.153c3.013-2.188,6.185-4.021,9.521-5.495
	c7.319,12.979,9.835,28.325,2.342,44.262c-3.62,8.274-9.789,14.479-17.263,19.986c-2.229,1.764-4.657,3.202-7.168,4.501
	c8.675-1.736,17.277-3.857,25.758-6.448c7.678-2.402,15.193-5.263,22.568-8.445c-5.984-11.227-6.722-25.383-2.831-39.069
	c1.018-3.776,2.522-6.971,3.937-10.564c1.453-3.526,3.153-6.817,5.089-9.845c1.896-3.091,4.206-5.656,6.427-8.424
	c2.178-2.839,4.579-5.407,7.211-7.697c9.671,9.836,15.596,23.222,12.878,39.655c-1.66,7.726-5.422,15.239-10.689,22.163
	c-1.786,2.259-3.862,4.286-6.045,6.222c11.068-5.729,21.746-12.229,31.946-19.378c2.804-2.164,5.694-4.224,8.548-6.327
	c-3.806-4.048-6.72-8.843-8.616-14.159c-1.115-3.096-1.837-6.259-2.363-9.682c-0.569-3.475-0.835-7.077-0.784-10.746
	c0.056-3.669,0.427-7.223,1.093-10.621c0.626-3.44,1.762-6.513,2.637-9.944c1.88-6.722,5.267-12.397,8.957-17.905
	c10.85,6.657,19.495,17.826,20.062,32.768c0.73,10.353-2.667,20.885-8.801,30.113l9.76-8.784
	c7.356-7.787,14.795-15.554,21.413-23.995c-9.344-6.042-15.784-16.517-18.19-28.783c-1.045-6.418-1.829-13.375-1.098-19.689
	c0.33-3.183,0.951-6.272,1.858-9.25c0.631-3.124,1.458-6.183,2.616-9.095c11.221,3.763,21.19,12.096,25.294,25.791
	c1.748,6.661,1.845,13.968,0.556,21.386c-0.406,2.894-1.348,5.606-2.452,8.276l1.918-2.538c1.869-2.727,3.5-5.614,5.261-8.413
	l5.2-8.462c1.781-2.795,3.486-5.632,4.829-8.666l4.286-8.79c-9.827-3.555-17.605-11.627-22.294-22.382
	c-5.699-11.817-6.061-23.894-4.507-35.679c11.033,1.248,21.44,6.883,27.993,18.604c3.336,5.862,4.378,12.334,4.67,19.322
	c0.07,2.728-0.107,5.514-0.408,8.31l5.935-15.855c2.452-7.282,4.542-14.689,6.344-22.171c-4.512-0.614-8.839-2.184-12.77-4.656
	c-4.574-2.831-8.159-6.632-11.954-11.513c-7.391-9.752-9.827-20.851-10.625-32.121c10.278-0.865,20.811,2.486,28.954,12.021
	c4.063,4.753,6.242,10.471,7.786,16.785c0.575,2.486,0.943,5.073,1.157,7.683c2.35-12.203,3.841-24.574,4.431-36.997
	c-9.102,0.601-18.244-3.185-25.471-10.438c-4.141-3.838-7.412-8.254-9.754-12.992c-2.492-4.729-4.469-9.744-5.277-14.956
	c9.308-2.513,19.407-1.132,28.181,6.283c4.509,3.687,7.826,8.533,10.163,14.057c0.969,2.299,1.815,4.732,2.441,7.22
	c0.07-11.705-0.631-23.413-2.181-35.02c-8.194,2.046-17.323,0.111-25.374-5.363c-4.122-2.92-7.984-6.437-11.03-10.408
	c-1.539-1.983-2.79-4.105-4.004-6.278c-1.292-2.152-2.382-4.397-3.263-6.722c8.092-3.759,17.68-4.067,27.05,1.316
	c4.45,2.744,8.334,6.644,11.527,11.292c1.493,2.218,2.699,4.637,3.714,7.168c-1.778-10.413-4.2-20.723-7.337-30.84
	c-0.183-0.628-0.406-1.241-0.594-1.866c-7.316,3.23-15.596,2.75-24.136-1.003c-4.472-1.98-8.277-4.768-11.659-8.008
	c-3.553-3.173-6.405-6.919-8.653-11.018c6.889-4.647,15.682-6.301,24.861-2.615c4.601,1.827,8.978,4.737,12.343,8.631
	c1.687,1.922,3.325,4.009,4.762,6.251c-3.258-9.371-7.179-18.511-11.358-27.513c-0.287-0.562-0.588-1.117-0.876-1.678
	c-6.177,4.046-14.261,5.019-22.492,2.613c-4.214-1.309-8.304-3.262-11.967-5.764c-3.618-2.53-6.668-5.701-9.547-9.066
	c5.629-5.164,13.716-7.969,22.672-5.821c4.431,1.096,8.696,3.274,12.585,6.239c1.998,1.601,3.806,3.473,5.468,5.509
	c-4.695-8.814-9.735-17.452-15.537-25.595c-5.159,4.61-12.459,6.586-20.331,5.356c-8.548-1.027-15.802-5.393-21.928-10.994
	c4.595-5.521,11.532-8.931,20.239-8.218c6.448,0.749,13.055,3.833,18.332,8.659c-5.476-7.619-11.481-14.841-17.752-21.829
	c-4.206,4.969-10.59,7.658-18.163,7.557c-8.003,0.041-15.287-3.146-21.638-7.66c3.596-5.633,9.62-9.565,17.733-9.907
	c4.05-0.17,7.979,0.826,11.876,2.437c2.597,1.07,5.014,2.613,7.297,4.365c-0.465-0.508-0.919-1.027-1.383-1.532
	c-4.106-4.122-8.288-8.182-12.566-12.135c-7.353-0.556-14.723-3.65-21.638-8.647c-6.921-5.593-12.193-12.017-14.532-19.395
	c7.262-0.591,16.342,1.318,23.725,7.263c7.456,5.399,11.745,13.19,13.203,20.27c4.276,3.879,8.46,7.862,12.569,11.911
	c0.424,0.453,0.838,0.918,1.262,1.373c-1.579-2.34-3.051-4.729-4.222-7.233c-1.794-3.852-2.839-8.088-3.298-12.175
	c-0.921-8.159,1.593-15.129,6.792-19.375c7.141,6.556,11.524,15.598,12.131,23.919c0.443,8.243-3.029,14.535-8.299,18.241
	c6.558,7.172,12.843,14.6,18.558,22.468c-3.279-6.77-5.369-13.954-5.028-21.308c0.102-8.826,3.698-15.944,9.819-19.773
	c6.803,8,10.254,18.341,9.779,27.294c-0.784,8.921-5.221,15.012-11.35,18.243c5.976,8.225,11.178,16.969,16.036,25.901
	c-0.787-2.655-1.413-5.348-1.826-8.046c-0.862-4.825-0.932-9.76-0.097-14.561c1.595-9.534,6.212-16.48,13.367-19.716
	c3.107,4.757,5.084,10.141,6.207,15.407c1.168,5.241,1.335,10.448,0.174,15.343c-2.065,9.311-7.635,15.061-14.618,17.579
	c0.295,0.562,0.602,1.119,0.897,1.682c4.294,9.02,8.331,18.19,11.704,27.603c-0.387-2.631-0.623-5.266-0.564-7.928
	c0.153-5.388,0.671-10.57,2.248-15.525c3.196-9.912,9.402-16.722,17.433-18.997c2.326,5.72,3.733,11.755,4.224,17.518
	c0.328,5.837-0.54,11.521-2.35,16.472c-3.443,9.476-10.711,14.781-18.413,16.27c0.199,0.63,0.43,1.247,0.62,1.88
	c3.236,10.099,5.769,20.401,7.662,30.819c0.156-2.68,0.451-5.344,0.846-7.951c0.8-5.625,2.5-11.105,5.138-16.138
	c4.818-9.923,12.561-16.159,21.488-17.21c0.803,3.252,1.383,6.539,1.724,9.787c0.261,3.27,0.118,6.545-0.18,9.688
	c-0.623,6.296-2.21,12.143-5.272,17.149c-5.591,9.494-13.718,13.733-22.224,13.98c1.724,12.056,2.557,24.238,2.554,36.429
	c0.655-2.89,1.313-5.737,2.304-8.505c2.073-5.82,4.966-11.32,8.382-16.161c7.088-9.674,16.53-14.935,26.137-14.417
	c0.325,7.264-0.118,14.497-1.942,21.085c-1.969,6.599-4.901,12.535-8.761,17.278c-7.909,8.961-17.374,11.914-26.312,10.639
	c-0.494,12.959-1.955,25.88-4.343,38.635c1.163-2.805,2.414-5.551,3.905-8.175c3.18-5.764,7.697-10.988,12.244-15.453
	c9.078-8.906,19.971-12.722,30.082-10.316c-1.01,15.756-8.804,30.297-18.708,38.827c-4.853,4.315-10.813,6.562-16.079,7.353
	c-4.772,0.683-9.384,0.091-13.697-1.411c-1.756,7.604-3.803,15.138-6.223,22.555l-5.986,16.464c1.625-2.424,3.36-4.771,5.277-6.967
	c4.566-5.4,10.482-9.938,16.178-13.724C572.26,331.168,584.59,329.329,594.744,333.988z M300,38.087
	c113.757,0,206.302,92.546,206.302,206.302S413.757,450.695,300,450.695S93.698,358.146,93.698,244.389S186.243,38.087,300,38.087z
	 M102.362,244.389c0,108.979,88.659,197.641,197.638,197.641s197.638-88.662,197.638-197.641S408.979,46.751,300,46.751
	S102.362,135.41,102.362,244.389z" fill="rgba(200, 232, 242, 1.0)">
    </path>
    </g>
    </g>
    <g>
    <g data-element="icon" transform="scale(0.1535654421297325) translate(725.6264679645983 400.0318156914101)">
    <path id="color_x5F_1_13_" d="M576.755,105.701v414.168c0,0-151.249-20.535-276.414,29.01v0.264    c-0.097-0.039-0.196-0.075-0.293-0.114c-0.029,0.068-0.048,0.114-0.048,0.114s-0.021-0.045-0.054-0.111    c-0.095,0.038-0.192,0.073-0.287,0.111v-0.264c-125.165-49.545-276.414-29.01-276.414-29.01V105.701c0,0,16.867,9.37,24.363,22.488    v365.443c0,0,93.652-13.814,203.14,26.641c-98.93-53.442-177.695-72.325-177.695-72.325V74.091c0,0,16.91,8.433,28.155,19.677    v331.648c89.156,28.43,153.162,73.311,182.012,96.211c-22.418-31.889-68.602-83.789-146.279-113.031V50.857    c76.048,19.838,124.032,55.227,146.55,81.021c0,0,3.993,244.25,10.142,325.506c0.838,11.079,6.368,44.227,6.368,44.227    s5.53-33.147,6.368-44.227c6.148-81.256,10.142-325.506,10.142-325.506c22.518-25.795,70.503-61.184,146.551-81.021v357.738    c-83.865,29.146-129.07,83.652-149.416,115.545c27.156-21.979,92.601-69.214,185.147-98.725V93.768    c11.245-11.244,28.157-19.677,28.157-19.677v373.857c0,0-78.767,18.883-177.697,72.325    c109.487-40.455,203.141-26.641,203.141-26.641V128.189C559.888,115.071,576.755,105.701,576.755,105.701z" fill="rgba(200, 232, 242, 1.0)">
    </path>
    </g>
    <defs>
        <style>
            @import url('https://fonts.googleapis.com/css2?family=Baskervville+SC&amp;display=swap');
        </style>
  </defs>
    <text transform="translate(237.36033630371094 135.56287384033203)" fill="rgba(200, 232, 242, 1.0)" font-family="Baskervville SC" font-size="64" data-element="company-name" dx="0 0 0 0 0 0">UniLib</text></g></g>
</svg>